<svg width="38" height="27" viewBox="0 0 38 27" fill="none" xmlns="http://www.w3.org/2000/svg">
<path d="M10.1709 3.85714H13.3V9.64286H6.60844L8.41344 5.06853C8.69844 4.33929 9.39312 3.85714 10.1709 3.85714ZM16.15 9.64286V3.85714H20.9713C21.5472 3.85714 22.0934 4.12232 22.4556 4.58036L26.4456 9.64286H16.15ZM31.3619 9.70312L25.4244 2.16964C24.3438 0.795536 22.705 0 20.9713 0H10.1709C7.8375 0 5.74156 1.4404 4.88062 3.63415L2.41062 9.90804C0.9975 10.4746 0 11.8667 0 13.5V20.25C0 21.3167 0.849062 22.1786 1.9 22.1786H3.87719C4.32844 24.9147 6.67375 27 9.5 27C12.3263 27 14.6716 24.9147 15.1228 22.1786H22.8772C23.3284 24.9147 25.6737 27 28.5 27C31.3263 27 33.6716 24.9147 34.1228 22.1786H36.1C37.1509 22.1786 38 21.3167 38 20.25V17.3571C38 13.4277 35.1025 10.1853 31.3619 9.70312ZM25.8103 20.25C25.9313 19.8869 26.1221 19.5519 26.3717 19.2643C26.6213 18.9768 26.9247 18.7424 27.2643 18.5749C27.6039 18.4074 27.9729 18.31 28.3498 18.2884C28.7268 18.2669 29.1042 18.3216 29.4602 18.4493C29.8162 18.5771 30.1436 18.7754 30.4234 19.0327C30.7033 19.29 30.93 19.6011 31.0903 19.9481C31.2507 20.2951 31.3415 20.6709 31.3576 21.0538C31.3736 21.4367 31.3145 21.819 31.1838 22.1786C31.0628 22.5416 30.872 22.8767 30.6224 23.1642C30.3728 23.4518 30.0694 23.6861 29.7298 23.8537C29.3902 24.0212 29.0212 24.1186 28.6442 24.1401C28.2673 24.1617 27.8898 24.107 27.5338 23.9792C27.1779 23.8515 26.8505 23.6532 26.5706 23.3959C26.2908 23.1386 26.0641 22.8275 25.9037 22.4805C25.7434 22.1335 25.6526 21.7577 25.6365 21.3748C25.6205 20.9919 25.6796 20.6095 25.8103 20.25ZM9.5 18.3214C10.2559 18.3214 10.9808 18.6262 11.5153 19.1687C12.0497 19.7112 12.35 20.4471 12.35 21.2143C12.35 21.9815 12.0497 22.7173 11.5153 23.2598C10.9808 23.8024 10.2559 24.1071 9.5 24.1071C8.74413 24.1071 8.01922 23.8024 7.48475 23.2598C6.95027 22.7173 6.65 21.9815 6.65 21.2143C6.65 20.4471 6.95027 19.7112 7.48475 19.1687C8.01922 18.6262 8.74413 18.3214 9.5 18.3214Z" fill="#FEC814"/>
</svg>
