<svg width="74" height="74" viewBox="0 0 74 74" fill="none" xmlns="http://www.w3.org/2000/svg">
<circle cx="37" cy="37" r="35" stroke="#AFAFAF" stroke-width="4"/>
<path d="M26.9372 35.5998H27.8762C27.8972 35.5182 27.9296 35.4414 27.959 35.3634C27.9734 35.325 27.9829 35.2848 27.9991 35.2476C28.0567 35.1156 28.1245 34.9896 28.2037 34.8708C28.2217 34.8444 28.2439 34.8216 28.2625 34.7958C28.3279 34.7052 28.3975 34.6188 28.4749 34.5384C28.5103 34.5018 28.5487 34.47 28.5859 34.4358C28.6549 34.3728 28.7251 34.3128 28.8013 34.2582C28.8457 34.2258 28.8913 34.1964 28.9381 34.1676C29.0155 34.119 29.0953 34.0764 29.1781 34.0368C29.2279 34.0134 29.2765 33.99 29.3275 33.9702C29.4193 33.9342 29.5141 33.9066 29.6113 33.8814C29.6581 33.8699 29.7025 33.8544 29.7499 33.8453C29.8963 33.8177 30.0457 33.7997 30.1999 33.7997C30.3541 33.7997 30.5035 33.8177 30.6499 33.8453C30.6973 33.8543 30.7417 33.8699 30.7885 33.8814C30.8857 33.9066 30.9805 33.9342 31.0723 33.9702C31.1233 33.99 31.1719 34.0134 31.2217 34.0368C31.3045 34.0764 31.3843 34.119 31.4617 34.1676C31.5085 34.1964 31.554 34.2258 31.5985 34.2582C31.6747 34.3128 31.7449 34.3728 31.8139 34.4358C31.8511 34.47 31.8895 34.5018 31.9249 34.5384C32.0023 34.6188 32.0719 34.7052 32.1373 34.7958C32.1559 34.8216 32.1781 34.8444 32.1961 34.8708C32.2753 34.9896 32.3431 35.1156 32.4007 35.2476C32.4168 35.2848 32.4265 35.325 32.4408 35.3634C32.4703 35.4414 32.5026 35.5183 32.5236 35.5998H37.4761C37.4971 35.5182 37.5295 35.4414 37.5588 35.3634C37.5733 35.325 37.5828 35.2848 37.599 35.2476C37.6566 35.1156 37.7244 34.9896 37.8036 34.8708C37.8216 34.8444 37.8438 34.8216 37.8624 34.7958C37.9278 34.7052 37.9974 34.6188 38.0748 34.5384C38.1102 34.5018 38.1486 34.47 38.1858 34.4358C38.2548 34.3728 38.325 34.3128 38.4012 34.2582C38.4456 34.2258 38.4912 34.1964 38.538 34.1676C38.6154 34.119 38.6952 34.0764 38.778 34.0368C38.8278 34.0134 38.8764 33.99 38.9274 33.9702C39.0192 33.9342 39.114 33.9066 39.2112 33.8814C39.258 33.8699 39.3024 33.8544 39.3498 33.8453C39.4962 33.8177 39.6456 33.7997 39.7998 33.7997C39.954 33.7997 40.1034 33.8177 40.2498 33.8453C40.2972 33.8543 40.3416 33.8699 40.3884 33.8814C40.4856 33.9066 40.5804 33.9342 40.6722 33.9702C40.7231 33.99 40.7717 34.0134 40.8216 34.0368C40.9044 34.0764 40.9841 34.119 41.0616 34.1676C41.1084 34.1964 41.1539 34.2258 41.1984 34.2582C41.2746 34.3128 41.3448 34.3728 41.4138 34.4358C41.451 34.47 41.4894 34.5018 41.5248 34.5384C41.6022 34.6188 41.6718 34.7052 41.7372 34.7958C41.7558 34.8216 41.778 34.8444 41.796 34.8708C41.8752 34.9896 41.943 35.1156 42.0006 35.2476C42.0167 35.2848 42.0264 35.325 42.0407 35.3634C42.0702 35.4414 42.1025 35.5183 42.1235 35.5998H43.0625C43.2485 35.5998 43.3997 35.4492 43.3997 35.2632V32.937C43.3997 32.751 43.2485 32.5998 43.0625 32.5998H41.5997H28.4H26.9372C26.7511 32.5998 26.6 32.751 26.6 32.937V35.2632C26.6 35.4492 26.7512 35.5998 26.9372 35.5998Z" fill="#AFAFAF"/>
<path d="M38.5257 28.7276C38.3793 28.5224 38.1405 28.4 37.8885 28.4H35.6001V31.4H40.4343L38.5257 28.7276Z" fill="#AFAFAF"/>
<path d="M34.4 28.4H32.1122C31.8596 28.4 31.6208 28.5224 31.4744 28.7276L29.5657 31.4H34.4L34.4 28.4Z" fill="#AFAFAF"/>
<path d="M30.2001 35.0001C29.5382 35.0001 29.0001 35.5383 29.0001 36.2001C29.0001 36.8619 29.5382 37.4001 30.2001 37.4001C30.8619 37.4001 31.4001 36.8619 31.4001 36.2001C31.4001 35.5383 30.8618 35.0001 30.2001 35.0001Z" fill="#AFAFAF"/>
<path d="M39.8001 35.0001C39.1383 35.0001 38.6001 35.5383 38.6001 36.2001C38.6001 36.8619 39.1383 37.4001 39.8001 37.4001C40.4619 37.4001 41.0001 36.8619 41.0001 36.2001C41.0001 35.5383 40.4619 35.0001 39.8001 35.0001Z" fill="#AFAFAF"/>
<path d="M39.2001 20H30.8V23V23.6001H39.1995L39.2001 20Z" fill="#AFAFAF"/>
<path d="M47.6002 23.6001V38.6019C48.4984 38.9775 49.309 39.5193 50.0002 40.1847V21.8C50.0002 20.8076 49.1926 20 48.2001 20H40.4001V22.4H46.4002C47.0619 22.4 47.6002 22.9382 47.6002 23.6001Z" fill="#AFAFAF"/>
<path d="M44.6001 53.6002C43.0791 53.6002 41.6637 53.1562 40.4625 52.4002H23.6C22.9382 52.4002 22.4 51.862 22.4 51.2002V23.6001C22.4 22.9382 22.9382 22.4001 23.6 22.4001H29.6V20H21.8C20.8076 20 20 20.8076 20 21.8V53.0002C20 53.9926 20.8076 54.8002 21.8 54.8002H44.6001C44.6001 54.8002 44.7909 53.6002 44.6001 53.6002Z" fill="#AFAFAF"/>
<path d="M23.6 51.2H38.9847C37.6353 49.7972 36.8001 47.8958 36.8001 45.8C36.8001 41.4992 40.2993 38 44.6002 38C45.2206 38 45.8212 38.0804 46.4002 38.2183V23.5999H40.4002C40.4002 24.2617 39.8614 24.7999 39.2002 24.7999H30.8001C30.1383 24.7999 29.6001 24.2617 29.6001 23.5999H23.6V51.2ZM25.4001 32.9371C25.4001 32.0899 26.0895 31.4 26.9366 31.4H28.0916L30.4982 28.0303C30.8696 27.5107 31.4726 27.1999 32.1116 27.1999H37.8878C38.5274 27.1999 39.1304 27.5108 39.5018 28.0303L41.9084 31.4H43.0628C43.9106 31.4 44.6 32.09 44.6 32.9371V35.2634C44.6 36.1106 43.9106 36.8 43.0628 36.8H42.1148C41.8466 37.8326 40.9154 38.6 39.7999 38.6C38.6845 38.6 37.7533 37.8326 37.4851 36.8H32.5147C32.2465 37.8326 31.3153 38.6 30.1998 38.6C29.0845 38.6 28.1532 37.8326 27.885 36.8H26.9364C26.0892 36.8 25.3999 36.1106 25.3999 35.2634V32.9371H25.4001ZM26 41.5999H35.0001C35.3319 41.5999 35.6001 41.8682 35.6001 42.2C35.6001 42.5318 35.3319 42.8 35.0001 42.8H26C25.6682 42.8 25.4 42.5318 25.4 42.2C25.4001 41.8682 25.6683 41.5999 26 41.5999ZM26 44.6H35.0001C35.3319 44.6 35.6001 44.8682 35.6001 45.2C35.6001 45.5318 35.3319 45.8 35.0001 45.8H26C25.6682 45.8 25.4 45.5318 25.4 45.2C25.4001 44.8682 25.6683 44.6 26 44.6ZM26 47.6H35.0001C35.3319 47.6 35.6001 47.8682 35.6001 48.2C35.6001 48.5318 35.3319 48.8001 35.0001 48.8001H26C25.6682 48.8001 25.4 48.5318 25.4 48.2C25.4 47.8682 25.6683 47.6 26 47.6Z" fill="#AFAFAF"/>
<path d="M52.8351 53.7874L49.4667 50.2431C50.5395 49.0689 51.2001 47.5126 51.2001 45.8001C51.2001 42.1611 48.2391 39.2001 44.6001 39.2001C40.9611 39.2001 38.0001 42.1611 38.0001 45.8001C38.0001 49.4391 40.9611 52.4001 44.6001 52.4001C46.0959 52.4001 47.4724 51.8943 48.5805 51.0519L51.9651 54.613C52.0833 54.7377 52.2412 54.8001 52.4001 54.8001C52.5489 54.8001 52.6972 54.7456 52.8129 54.6351C53.0536 54.4072 53.0632 54.0268 52.8351 53.7874ZM44.6001 51.2002C41.6223 51.2002 39.2001 48.7779 39.2001 45.8001C39.2001 42.8223 41.6223 40.4001 44.6001 40.4001C47.5779 40.4001 50.0001 42.8223 50.0001 45.8001C50.0001 48.778 47.5779 51.2002 44.6001 51.2002Z" fill="#AFAFAF"/>
</svg>
