<svg width="365" height="363" viewBox="0 0 365 363" fill="none" xmlns="http://www.w3.org/2000/svg">
<path fill-rule="evenodd" clip-rule="evenodd" d="M201.821 146.614C204.392 145.96 205.496 144.551 209.041 145.016C209.957 145.132 210.886 145.684 211.845 146.004C212.891 146.367 213.996 146.498 214.649 146.803C215.23 147.079 216.015 147.864 216.843 148.605C217.86 149.52 218.877 150.392 219.647 151.612C219.909 152.033 220.039 152.6 220.243 153.007C221.129 154.75 221.899 156.174 221.434 158.615C221.376 158.949 221.245 159.719 221.027 160.213C220.998 160.3 220.664 160.344 220.635 160.416C220.533 160.649 220.664 160.997 220.446 161.404C220.257 161.738 219.865 162.058 219.647 162.407C218.892 163.54 218.441 164.281 217.25 165.196C216.727 165.603 216.189 166.126 215.448 166.605C214.591 167.157 214.344 167.404 212.848 167.608C211.932 167.724 210.131 168 208.838 168C207.995 168 207.022 167.739 206.034 167.608C203.738 167.288 203.056 167.259 201.428 166.01C201.167 165.806 200.934 165.472 200.629 165.211C200.034 164.731 199.932 164.542 199.423 163.816C199.365 163.743 199.046 163.685 199.031 163.612C198.305 162 196.808 159.762 196.634 157.801C196.402 155.23 196.75 153.05 197.636 151.597C197.753 151.394 197.898 151.002 198.029 150.798C198.087 150.726 198.406 150.668 198.436 150.609C198.828 149.767 199.685 148.532 200.44 147.805C200.571 147.675 200.891 147.733 201.036 147.602C201.269 147.399 201.472 147.094 201.821 146.614Z" fill="#2F2F2F"/>
<path fill-rule="evenodd" clip-rule="evenodd" d="M232.897 157.656C232.011 158.193 231.023 158.687 229.948 159.109C227.638 160.009 225.153 160.373 222.684 160.373C217.962 160.373 212.862 159.123 209.07 156.203C202.809 151.365 200.368 142.285 203.274 134.919C207.08 125.199 217.526 122.395 226.824 125.693C240.219 130.429 245.653 149.912 232.897 157.656Z" fill="#2F2F2F"/>
<path fill-rule="evenodd" clip-rule="evenodd" d="M344.287 25.2721C349.59 30.9673 353.455 38.6383 354.079 45.5248C354.254 47.5152 353.701 49.8398 354.283 51.9319C354.573 53.007 355.474 53.9077 356.288 54.9393C357.043 55.8836 357.857 56.857 358.481 57.7433C361.329 61.6224 364.046 66.8962 364.641 71.7487C364.961 74.422 364.758 77.3422 364.743 80.03C364.685 86.4225 361.939 92.4373 357.871 97.2608C355.852 99.6725 353.571 101.953 351.057 103.871C349.634 104.961 345.696 106.646 345.028 108.419C344.65 109.378 344.694 110.409 344.49 111.397C344.302 112.327 343.764 113.184 343.749 114.143C343.662 119.126 341.338 122.671 338.156 126.492C335.018 130.269 330.064 133.567 325.269 134.831C322.799 135.485 318.354 135.514 314.257 135.224C310.581 134.962 307.007 135.18 304.639 134.628C302.663 134.163 300.614 132.783 298.522 133.146C296.474 133.509 295.152 135.398 293.423 136.386C290.314 138.173 286.551 140.047 283.02 140.832C280.58 141.384 277.717 141.238 274.812 141.238C271.092 141.238 267.33 141.079 263.697 140.207C261.053 139.568 258.86 137.839 256.273 137.127C252.917 136.197 251.188 137.984 248.181 138.827C246.903 139.19 245.246 139.219 243.59 139.437C231.895 140.977 217.831 137.083 213.342 125.025C213.255 124.778 213.255 124.255 213.153 124.022C211.584 120.506 205.337 120.477 202.416 118.56C199.336 116.54 197.172 114.332 195.326 111.208C192.145 105.789 195.719 100.283 190.329 95.59C189.428 94.8054 188.571 93.9628 187.728 92.9894C179.897 83.88 179.345 69.8455 183.791 59.0944C185.418 55.1572 187.96 51.5977 191.128 48.7356C191.331 48.5467 191.622 48.0818 191.912 47.7331C192.726 46.7888 193.205 45.641 193.525 43.9267C194.585 38.1008 195.937 31.7082 199.627 26.8993C201.516 24.444 204.305 22.2066 206.92 20.5503C208.17 19.7513 209.535 18.9958 210.93 18.5018C212.528 17.9352 214.664 17.4558 216.349 17.3977C218.209 17.3395 223.279 17.049 224.776 15.9012C225.938 15.0005 227.216 13.5476 227.885 12.24C230.195 7.69262 235.846 5.42618 239.987 2.94181C244.912 -0.0220038 251.203 -0.283516 256.782 0.268566C260.501 0.631779 263.683 2.91275 267.17 4.0605C271.296 5.44071 273.955 3.45031 277.717 2.08463C282.672 0.283095 288.018 -0.138231 293.278 0.0361107C302.227 0.326681 311.336 5.42618 317.86 11.3247C321.187 14.3467 321.085 16.7875 326.054 16.8892C328.131 16.9327 330.093 16.9037 331.865 17.2814C332.955 17.5139 333.928 17.8771 334.873 18.2839C338.214 19.7658 341.439 22.2356 344.287 25.2721Z" fill="#2F2F2F"/>
<path fill-rule="evenodd" clip-rule="evenodd" d="M286.638 10.6565C292.42 10.3514 298.464 11.7897 303.593 14.4484C309.375 17.4558 311.888 22.5408 316.116 26.9429C316.77 27.6112 317.903 27.4078 318.848 27.2771C319.966 27.1318 321.114 27.0737 322.305 27.0737C326.955 27.0737 331.531 28.8462 335.076 31.8681C336.907 33.4372 338.054 35.4276 339.667 37.171C343.372 41.1663 344.854 47.3845 344.214 52.7165C344.113 53.5882 343.822 54.3727 343.953 55.3316C344.156 56.8571 346.67 57.1767 347.658 57.9613C348.98 59.0218 349.822 60.5764 350.665 62.0292C354.152 68.015 355.779 75.5843 354.806 82.4272C354.312 85.8995 353.106 89.2556 350.854 91.987C349.11 94.0936 346.771 95.7063 344.389 97.0138C343.648 97.4206 342.645 98.6265 341.832 98.7572C341.062 98.888 340.524 97.8565 339.899 97.5804C339.071 97.2172 337.996 97.0865 337.241 97.6676C336.514 98.2342 336.747 99.0478 336.747 99.905C336.747 101.271 336.718 102.738 336.427 104.06C336.209 105.048 336.107 106.065 335.904 107.068C335.701 108.099 335.875 109 335.512 110.017C332.04 119.911 323.555 126.812 312.818 125.272C309.971 124.865 306.891 124.458 304.217 123.325C302.953 122.787 303.23 121.814 302.91 120.652C302.634 119.606 301.704 118.385 300.498 119.039C299.467 119.606 298.726 121.247 297.956 122.134C297.244 122.962 296.328 123.572 295.471 124.211C294.687 124.807 293.975 125.475 293.176 126.056C291.534 127.262 289.805 128.323 287.96 129.209C282.134 132.071 275.306 133.408 268.884 132.071C267.025 131.679 265.078 131.403 263.378 130.517C262.07 129.834 261.693 129.311 261.838 127.858C261.925 127.001 262.434 125.562 261.867 124.792C260.966 123.586 259.121 124.095 258.148 124.909C256.361 126.376 254.138 127.654 251.944 128.395C250.084 129.035 248.167 129.5 246.22 129.79C239.885 130.778 232.912 130.11 227.42 126.579C223.148 123.819 220.185 119.591 218.848 114.71C218.383 113.024 218.485 108.288 215.55 110.264C214.983 110.656 214.606 111.513 213.952 111.76C213.327 111.993 212.833 111.673 212.223 111.557C211.122 111.365 210.048 111.038 209.027 110.583C200.528 106.617 204.479 97.9872 204.523 90.9554C204.523 89.459 203.971 88.0352 202.3 88.8198C201.661 89.1249 200.368 90.5487 199.729 90.5341C199.089 90.5196 198.101 89.0667 197.665 88.6309C196.142 87.0577 194.855 85.2714 193.845 83.328C193.83 83.2958 193.811 83.2663 193.786 83.2408C190.474 76.7466 190.14 68.3782 192.886 61.637C194.585 57.4673 198.653 53.5737 202.155 50.8278C202.823 50.2902 203.898 50.0287 204.421 49.3604C204.872 48.7938 204.857 48.1109 204.349 47.6024C203.84 47.1085 202.765 47.3555 202.46 46.7598C202.227 46.3239 202.46 45.3215 202.489 44.842C202.605 43.3456 202.881 41.8782 203.332 40.4399C204.77 35.7472 207.777 31.839 211.497 28.7445C214.155 26.5507 217.482 25.3157 220.867 24.7637C224.776 24.1244 230.238 25.984 232.607 22.4827C234.815 19.1992 237.299 16.7439 240.641 14.6082C244.215 12.3273 248.399 11.1214 252.641 11.1505C259.136 11.194 264.162 13.1118 269.683 16.0611C272.327 17.4704 273.635 15.262 275.698 13.969C278.996 11.8914 282.773 10.8599 286.638 10.6565ZM228.568 147.558C224.994 150.421 218.703 151.278 214.606 148.256C212.79 146.919 211.991 144.304 211.569 142.197C211.104 139.815 212.426 137.374 214.112 135.776C214.635 135.282 215.129 134.628 215.724 134.381C220.054 132.536 225.749 133.64 228.916 137.142C232.679 141.297 231.59 145.147 228.568 147.558ZM207.777 152.629C213.618 151.074 217.061 159.356 210.596 161.23C207.908 162.014 205.729 160.3 204.857 157.83C204 155.389 205.598 153.21 207.777 152.629Z" fill="white"/>
<path d="M180.419 140.754C180.072 140.408 179.766 140.003 179.758 139.516C179.72 136.807 177.738 135.645 175.789 134.326C175.551 135.262 176.383 136.015 175.907 136.865C174.84 136.209 173.833 135.449 172.717 134.928C170.306 133.802 167.884 133.611 165.557 135.24C164.871 135.719 164.115 136.096 163.419 136.559C162.625 137.087 161.505 137.472 161.257 138.36C160.925 139.54 162.359 139.673 162.998 140.269C163.688 140.916 163.737 141.57 163.451 142.37C163.245 142.958 162.925 143.165 162.407 142.702C158.47 139.198 154.261 139.546 149.917 141.86C149.709 140.567 149.709 140.567 152.841 137.852C150.382 136.94 148.007 136.046 145.623 135.182C144.869 134.91 144.718 135.409 144.644 136.027C144.235 139.337 142.9 142.211 140.612 144.66C139.746 145.59 139.736 146.853 139.629 148.039C139.49 149.588 139.426 151.145 139.276 152.692C139.19 153.568 139.138 154.502 138.211 155.01C138.161 154.957 138.108 154.905 138.058 154.853C136.441 154.037 136.125 152.607 135.822 150.937C135.359 148.357 133.516 146.545 131.462 145.046C130.55 144.382 129.44 144.353 128.393 144.863C127.704 145.195 127.15 145.141 126.717 144.47C126.967 139.907 126.286 135.379 126.169 130.825C126.087 127.44 127.263 124.743 129.734 122.558C137.845 115.394 146.984 110.695 158.13 111.015C163.056 111.156 167.696 112.562 172.107 114.695C174.31 115.76 175.829 117.478 176.463 119.903C176.645 120.596 176.951 121.259 177.104 121.958C177.877 125.494 179.351 128.229 182.83 130.191C186.813 132.436 188.664 136.432 188.318 141.171C188.191 142.905 187.639 143.306 185.984 142.776C184.105 142.176 182.272 141.433 180.419 140.754Z" fill="black"/>
<path d="M126.734 160.361C124.4 159.573 122.428 158.909 120.458 158.246C117.566 157.277 114.414 158.554 113.522 161.054C112.638 163.541 114.178 166.324 117.119 167.365C121.183 168.806 125.276 170.171 129.356 171.571C129.866 171.746 130.379 171.915 130.873 172.129C131.443 172.374 132.254 172.449 131.914 173.442C131.557 174.491 130.909 173.943 130.327 173.744C125.398 172.052 120.482 170.324 115.538 168.677C109.061 166.516 102.572 164.379 96.0582 162.328C94.7813 161.926 94.7149 161.422 95.2667 160.423C95.6715 159.692 96.0461 158.937 96.3643 158.165C96.6886 157.384 96.3523 156.758 95.7098 156.3C95.0149 155.807 94.588 156.431 94.161 156.78C93.7965 157.074 93.5447 157.507 93.2587 157.888C91.6314 160.012 89.5892 161.261 86.8944 161.889C82.6408 162.878 78.4577 164.214 74.3209 165.619C65.4813 168.624 58.2168 166.228 52.0518 159.539C48.7448 155.952 45.8124 152.093 43.2244 147.964C42.0543 146.099 41.4077 144.057 41.297 141.864C41.2204 140.331 41.724 139.971 43.1116 140.561C44.2234 141.032 45.1659 141.785 46.1145 142.527C49.7136 145.33 53.4053 148.005 57.2218 150.506C58.9237 151.622 60.7061 151.956 62.704 151.348C67.9385 149.757 73.4468 143.117 73.9302 137.671C74.2464 134.118 73.0218 131.206 70.1861 128.994C66.3856 126.032 62.1904 123.704 57.9791 121.404C55.6126 120.113 55.5925 119.196 57.8945 117.718C59.252 116.848 60.7907 116.536 62.3395 116.425C72.1679 115.71 80.9047 118.82 88.8198 124.37C92.3262 126.829 94.2255 130.616 95.5628 134.579C97.8366 141.328 102.551 145.419 109.131 147.66C113.669 149.205 118.174 150.84 122.72 152.363C123.884 152.754 124.545 153.338 124.667 154.601C124.855 156.536 125.646 158.292 126.734 160.361Z" fill="black"/>
<path d="M165.311 174.857C160.91 174.536 157.158 174.218 153.668 172.607C151.473 171.594 151.034 170.619 151.861 168.319C152.101 167.657 151.988 167.244 151.634 166.694C150.697 165.244 150.288 163.612 150.508 161.898C150.639 160.877 151.199 160.231 152.155 161.244C155.4 164.684 159.682 165.177 164.018 165.373C165.847 165.455 167.669 165.892 169.534 165.483C170.388 165.296 171.105 165.61 170.688 166.811C169.971 168.865 169.5 170.941 170.207 173.127C170.425 173.805 170.058 174.371 169.311 174.363C167.748 174.351 166.26 175.094 165.311 174.857Z" fill="#FAFAFA"/>
<path d="M155.486 147.422C154.284 146.741 154.364 147.398 154.401 147.803C154.507 148.961 155.313 149.508 156.348 149.52C157.371 149.533 157.986 148.834 158.086 147.813C158.201 146.663 157.534 146.002 156.485 145.803C156.179 145.744 155.041 145.472 155.822 146.655C156.157 147.16 155.716 147.517 155.486 147.422ZM161.182 149.035C161.27 149.708 160.968 150.167 160.402 150.495C158.805 151.426 154.092 151.17 152.908 150.072C152.427 149.629 151.97 149.16 151.829 148.481C151.303 146.628 152.167 145.694 153.883 145.21C155.248 144.828 156.602 144.755 157.965 145.061C160.678 145.67 161.083 146.161 161.226 148.856L161.264 148.826C161.222 148.828 161.18 148.828 161.137 148.83C161.152 148.898 161.166 148.967 161.182 149.035Z" fill="#FAFAFA"/>
<path d="M178.813 145.938C175.422 144.619 172.058 143.521 168.596 145.499C168.552 143.573 169.672 142.592 172.093 142.347C175.829 141.97 178.274 143.227 178.813 145.938Z" fill="#0A0909"/>
<path d="M170.024 150.578C169.095 151.118 169.065 150.175 168.705 149.78C169.218 147.386 169.838 146.9 172.211 147.051C174.41 147.188 175.494 148.181 175.713 150.26C174.692 151.883 173.522 152.181 171.325 151.375C171.607 151.291 171.905 151.236 172.173 151.118C172.908 150.789 172.992 150.169 172.874 149.466C172.775 148.872 172.477 148.516 171.844 148.415C170.868 148.26 170.982 148.749 171.22 149.365C171.222 149.372 170.91 149.575 170.807 149.533C169.236 148.914 170.088 150.089 170.024 150.578Z" fill="#FAFAFA"/>
<path d="M161.223 148.856C161.082 146.161 160.677 145.67 157.964 145.062C156.599 144.756 155.245 144.828 153.88 145.211C152.164 145.694 151.3 146.631 151.825 148.482C150.436 147.386 150.361 146.605 151.55 145.497C153.787 143.41 159.191 143.594 161.158 145.865C161.964 146.798 162.349 147.835 161.223 148.856Z" fill="#211C14"/>
<path d="M175.714 150.259C175.495 148.18 174.413 147.187 172.212 147.05C169.839 146.901 169.217 147.385 168.707 149.779C167.996 147.822 168.248 147.233 170.095 146.529C172.085 145.769 174.816 146.398 175.948 147.92C176.556 148.738 176.989 149.6 175.714 150.259Z" fill="#211C14"/>
<path d="M170.022 150.577C170.087 150.088 169.235 148.914 170.806 149.532C170.908 149.574 171.221 149.371 171.219 149.365C170.981 148.748 170.866 148.259 171.843 148.414C172.475 148.515 172.773 148.871 172.872 149.465C172.991 150.168 172.906 150.789 172.171 151.117C171.903 151.236 171.605 151.29 171.323 151.375C170.888 151.109 170.455 150.843 170.022 150.577Z" fill="#211C14"/>
<path d="M161.183 149.035C161.167 148.967 161.153 148.899 161.139 148.831C161.181 148.829 161.223 148.829 161.265 148.827L161.141 148.899L161.183 149.035Z" fill="#211C14"/>
<path d="M138.209 155.009C138.113 155.109 137.942 155.302 137.936 155.298C137.667 155.073 137.884 154.967 138.057 154.852C138.107 154.904 138.159 154.957 138.209 155.009Z" fill="#040404"/>
<path d="M1.35141 148.215C0.749216 148.088 0.177234 147.921 0 147.218C0.765328 147.123 1.3353 147.293 1.35141 148.215Z" fill="black"/>
<path d="M2.19646 149.598C1.45127 149.596 1.48148 149.065 1.4835 148.551C2.28508 148.515 2.29112 149.022 2.19646 149.598Z" fill="black"/>
<path d="M178.81 145.935C178.27 143.224 175.825 141.968 172.089 142.344C169.668 142.59 168.548 143.571 168.593 145.496C172.055 143.518 175.418 144.616 178.81 145.935ZM165.31 174.855C166.258 175.092 167.747 174.347 169.31 174.361C170.057 174.369 170.423 173.801 170.206 173.124C169.499 170.939 169.97 168.863 170.687 166.808C171.104 165.608 170.387 165.294 169.533 165.481C167.668 165.89 165.845 165.453 164.017 165.37C159.68 165.175 155.399 164.682 152.154 161.242C151.197 160.229 150.638 160.875 150.507 161.896C150.287 163.61 150.696 165.24 151.632 166.692C151.987 167.242 152.1 167.654 151.86 168.317C151.032 170.617 151.471 171.592 153.667 172.605C157.157 174.216 160.909 174.534 165.31 174.855ZM126.733 160.362C125.646 158.293 124.854 156.537 124.665 154.602C124.544 153.337 123.883 152.753 122.717 152.362C118.174 150.841 113.666 149.206 109.129 147.659C102.551 145.42 97.8359 141.329 95.5621 134.578C94.2248 130.617 92.3256 126.83 88.8172 124.369C80.9041 118.818 72.1672 115.711 62.3388 116.424C60.788 116.537 59.2513 116.849 57.8939 117.719C55.5898 119.197 55.614 120.111 57.9785 121.402C62.1898 123.702 66.385 126.031 70.1814 128.993C73.0212 131.207 74.2457 134.119 73.9295 137.67C73.4461 143.118 67.9358 149.756 62.7034 151.349C60.7034 151.955 58.923 151.621 57.2212 150.507C53.4026 148.006 49.7109 145.331 46.1119 142.525C45.1653 141.786 44.2227 141.033 43.111 140.562C41.7233 139.972 41.2198 140.332 41.2963 141.865C41.4051 144.058 42.0536 146.1 43.2238 147.965C45.8118 152.092 48.7442 155.953 52.0512 159.54C58.2161 166.228 65.4787 168.625 74.3182 165.618C78.457 164.212 82.6402 162.879 86.8917 161.888C89.5865 161.262 91.6307 160.011 93.2561 157.888C93.5461 157.508 93.7978 157.075 94.1604 156.781C94.5873 156.43 95.0143 155.806 95.7071 156.299C96.3516 156.759 96.6879 157.385 96.3597 158.166C96.0435 158.938 95.6709 159.693 95.266 160.424C94.7122 161.421 94.7787 161.927 96.0555 162.329C102.571 164.378 109.058 166.516 115.537 168.678C120.48 170.325 125.396 172.053 130.326 173.743C130.908 173.944 131.555 174.49 131.913 173.443C132.254 172.45 131.438 172.373 130.87 172.128C130.376 171.914 129.863 171.745 129.353 171.572C125.275 170.17 121.182 168.804 117.116 167.366C114.176 166.325 112.637 163.54 113.521 161.052C114.411 158.553 117.565 157.276 120.455 158.247C122.427 158.907 124.397 159.574 126.733 160.362ZM171.317 151.373C173.519 152.179 174.689 151.881 175.71 150.257C176.985 149.597 176.552 148.737 175.944 147.917C174.812 146.394 172.081 145.768 170.091 146.527C168.244 147.232 167.992 147.82 168.697 149.776C169.062 150.173 169.092 151.113 170.02 150.575C170.453 150.841 170.882 151.107 171.317 151.373ZM161.261 148.825L161.223 148.854C162.347 147.832 161.964 146.795 161.157 145.863C159.191 143.591 153.785 143.408 151.55 145.494C150.362 146.602 150.434 147.383 151.826 148.479C151.967 149.158 152.424 149.627 152.905 150.072C154.09 151.168 158.802 151.423 160.399 150.495C160.965 150.167 161.268 149.705 161.179 149.033L161.137 148.896L161.261 148.825ZM104.736 242.338C103.211 242.546 102.247 243.706 101.066 244.499C97.0907 247.174 93.2399 250.05 88.8554 252.072C82.2615 255.113 73.2226 249.794 72.7775 242.592C72.4291 236.961 74.6848 232.484 77.74 228.186C80.5154 224.285 82.9463 220.124 86.4587 216.768C87.6168 215.663 87.6248 214.202 87.0247 212.754C86.8414 212.311 86.6098 211.888 86.4245 211.445C85.3873 208.986 85.5887 208.352 87.9793 207.248C89.6127 206.495 90.946 205.538 91.7637 203.846C92.3155 202.712 93.4232 202.219 94.6598 202.767C96.6497 203.655 98.0958 203.013 99.3888 201.444C102.067 198.191 105.431 195.639 108.444 192.731C111.88 189.418 116.145 187.932 120.554 186.773C123.515 185.996 125.553 184.478 126.193 181.446C126.463 180.17 127.462 179.972 128.348 179.537C128.955 179.241 130.086 179.378 130.052 178.599C130.018 177.876 128.902 177.908 128.25 177.69C121.652 175.495 115.04 173.348 108.444 171.159C104.802 169.948 101.129 168.818 97.5661 167.409C92.4988 165.405 87.6188 165.892 82.7066 167.886C78.1932 169.719 73.5348 171.123 68.6588 171.465C62.8886 171.87 57.6159 170.261 53.4711 166.206C48.1843 161.04 43.4453 155.383 40.3034 148.574C39.3024 146.402 38.8392 144.151 38.9983 141.764C39.1736 139.158 40.9741 138.048 43.3688 139.096C44.98 139.803 46.3958 140.828 47.7311 141.935C50.8307 144.507 54.2344 146.65 57.487 149.005C59.9119 150.761 61.6963 150.714 64.2823 149.037C67.0859 147.216 69.7263 145.12 71.0555 142.002C73.6496 135.917 73.0615 132.669 67.9358 129.068C64.4455 126.613 60.6954 124.591 56.9856 122.498C55.9463 121.912 54.601 121.408 54.605 120.049C54.609 118.532 55.6321 117.437 56.9312 116.635C58.778 115.493 60.8505 115.107 62.941 114.994C72.4754 114.48 81.0591 117.447 88.8615 122.655C93.0406 125.447 95.3365 129.815 97.0263 134.463C99.0444 140.014 102.418 144.155 108.397 145.74C110.013 146.169 111.547 146.9 113.128 147.462C116.288 148.588 119.462 149.683 122.625 150.811C123.754 151.216 124.409 151.131 124.512 149.669C124.608 148.286 125.176 146.987 126.119 145.927C126.51 145.486 126.628 144.999 126.717 144.467C127.15 145.138 127.704 145.192 128.393 144.86C129.44 144.35 130.55 144.38 131.462 145.045C133.516 146.543 135.359 148.356 135.822 150.934C136.124 152.606 136.441 154.034 138.058 154.849C137.885 154.966 137.667 155.073 137.937 155.296C137.943 155.3 138.114 155.107 138.211 155.006C139.137 154.499 139.19 153.564 139.276 152.688C139.427 151.141 139.49 149.585 139.629 148.036C139.736 146.85 139.746 145.587 140.612 144.656C142.9 142.207 144.235 139.335 144.644 136.024C144.718 135.406 144.865 134.906 145.621 135.18C148.007 136.042 150.382 136.937 152.837 137.849C149.709 140.564 149.709 140.564 149.919 141.859C154.261 139.545 158.468 139.194 162.403 142.699C162.927 143.162 163.243 142.954 163.451 142.368C163.737 141.569 163.688 140.912 162.996 140.266C162.359 139.67 160.925 139.537 161.257 138.356C161.505 137.468 162.625 137.084 163.416 136.556C164.115 136.093 164.871 135.716 165.557 135.237C167.884 133.607 170.306 133.801 172.717 134.927C173.835 135.446 174.842 136.205 175.907 136.864C176.383 136.012 175.551 135.261 175.789 134.322C177.738 135.642 179.72 136.804 179.758 139.514C179.766 140 180.072 140.405 180.419 140.751C181.772 146.05 179.102 150.706 178.034 155.617C177.176 159.55 176.741 163.522 176.753 167.55C176.753 169.258 177.368 170.254 179.102 170.845C189.599 174.419 200.064 178.101 210.545 181.726C211.04 181.9 211.596 181.894 212.126 181.972C212.406 183.384 211.934 183.579 210.621 183.116C203.729 180.687 196.809 178.337 189.897 175.964C185.671 174.514 181.446 173.076 177.037 171.57C177.223 173.157 177.537 174.52 177.499 175.874C177.46 177.187 178.077 177.638 179.162 177.988C185.093 179.904 191.019 181.835 196.928 183.819C203.119 185.899 209.306 187.998 215.457 190.187C217.781 191.013 218.909 193.222 218.47 195.492C218.033 197.752 216.131 199.301 213.699 199.359C212.54 199.385 211.461 199.025 210.375 198.66C199.534 195.009 188.686 191.374 177.845 187.724C176.479 187.263 175.168 186.973 174.046 188.28C174.77 189.323 175.99 189.144 176.969 189.474C194.334 195.337 211.842 200.775 229.128 206.875C230.264 207.276 231.17 207.492 231.788 206.114C232.139 205.337 232.967 205.268 233.676 205.458C234.666 205.717 234.173 206.559 234.095 207.119C233.839 208.924 233.72 210.68 234.594 212.384C235.579 214.301 236.564 216.222 237.44 218.19C239.913 223.749 243.79 227.845 249.476 230.194C252.136 231.293 254.793 232.411 257.602 233.044C261.048 233.821 264.512 234.697 268.067 233.622C268.738 233.42 269.606 233.348 269.719 232.472C269.829 231.585 268.897 231.547 268.379 231.247C264.843 229.213 261.268 227.249 258.015 224.764C255.584 222.905 254.486 220.504 254.636 217.429C254.899 212.001 260.013 205.681 265.3 204.394C266.72 204.048 267.992 204.338 269.241 205.119C273.569 207.83 277.549 211.03 281.734 213.937C282.385 214.384 283.027 215.189 283.97 214.537C284.826 213.943 284.864 213.01 284.771 212.1C284.55 209.925 283.803 207.919 282.785 205.989C280.21 201.105 276.617 197.015 272.842 193.047C269.7 189.736 265.914 188.06 261.342 187.972C256.615 187.879 252.245 189.297 247.868 190.806C244.771 191.875 241.611 192.393 238.314 191.823C237.025 191.599 236.233 191.376 237.25 189.915C237.53 189.511 237.891 188.953 237.47 188.24C237.051 188.8 236.687 189.267 236.338 189.748C234.163 192.763 231.734 193.102 228.84 190.84C227.877 190.087 227.632 189.279 228.232 188.193C229.164 186.508 230.292 184.963 231.49 183.456C232.695 181.942 234.026 181.269 236.028 181.988C238 182.693 238.723 184.02 238.684 185.958C238.666 187.096 238.727 188.246 238.578 189.368C238.411 190.612 238.813 190.951 239.953 190.548C242.334 191.088 244.577 190.401 246.779 189.678C251.683 188.066 256.545 186.423 261.836 186.643C266.23 186.828 270.013 188.254 273.14 191.376C278.049 196.278 282.489 201.5 285.168 208.023C285.825 209.625 286.078 211.232 286.024 212.932C285.931 215.87 283.887 217.046 281.402 215.431C279.144 213.961 277.035 212.263 274.844 210.694C272.842 209.266 270.798 207.903 268.806 206.463C267.739 205.691 266.571 205.548 265.378 205.858C260.958 207.01 256.412 212.855 256.009 217.431C255.737 220.522 257.362 222.387 259.522 224.063C262.804 226.611 266.422 228.659 270.097 230.532C272.742 231.877 272.208 234.216 270.423 235.472C267.547 237.501 264.196 237.613 260.923 237.376C255.312 236.969 250.076 235.148 244.978 232.741C239.115 229.97 235.917 225.151 233.706 219.37C232.586 216.45 231.277 213.6 228.379 211.919C228.262 211.492 228.081 211.067 227.553 211.167C226.931 211.284 227.104 211.935 226.943 212.335C226.475 213.493 226.288 214.813 225.628 215.832C224.715 217.242 223.205 216.202 221.962 216.303C221.549 216.337 221.076 216.251 220.987 216.833C220.895 217.475 221.674 217.185 221.817 217.584C220.667 217.743 220.357 218.698 219.948 219.564C216.542 226.794 212.623 233.718 207.721 240.06C205.92 242.395 203.89 244.507 201.753 246.529C199.095 249.037 195.893 249.067 192.636 248.433C189.897 247.897 187.45 246.604 185.295 244.803C184.787 244.381 184.28 243.956 183.575 243.905C183.504 243.412 183.692 242.981 183.847 242.522C185.389 237.962 186.908 233.394 188.433 228.83C190.177 227.797 191.715 226.403 192.457 224.603C193.748 221.469 195.341 218.555 197.308 215.82C197.872 215.036 197.721 214.547 196.716 214.297C195.643 214.031 195.2 213.193 195.131 212.146C195.051 210.968 194.898 209.774 193.546 209.425C192.231 209.085 191.639 210.132 191.023 211.034C190.934 211.165 190.751 211.232 190.646 211.304C189.319 208.448 186.93 206.457 184.96 204.159C183.901 202.924 183.18 201.23 181.353 200.779L177.424 195.339C178.226 195.246 178.574 195.903 179.021 196.348C182.427 199.728 185.881 203.057 188.839 206.853C189.689 207.939 190.6 208.799 192.336 208.4C195.147 207.752 195.905 208.493 196.177 211.524C196.318 213.109 197.915 214.138 198.998 213.115C200.658 211.552 202.49 209.997 203.117 207.613C204.464 207.345 204.17 206.724 203.548 205.907C202.911 205.067 201.631 204.509 202.072 203.125C202.513 201.746 201.56 202.195 200.928 202.199C200.64 201.782 200.205 201.603 199.745 201.448C194.61 199.722 189.504 197.897 184.326 196.294C181.674 195.472 179.18 194.064 176.32 193.935C175.748 193.774 175.233 193.794 174.85 194.328C172.474 193.663 171.616 190.92 169.187 190.054C169.114 191.283 169.591 192.066 170.329 192.733C170.957 193.297 171.044 193.772 170.228 194.274C167.827 195.756 166.881 198.243 165.882 200.686C165.837 200.761 165.791 200.833 165.749 200.906C165.823 200.866 165.9 200.823 165.974 200.781C167.438 200.12 168.504 198.906 169.765 197.969C170.317 197.561 170.635 197.412 171.084 197.845C171.624 198.366 172.357 198.765 172.417 199.647C171.807 199.42 170.832 198.835 170.649 199.023C169.569 200.132 168.039 200.386 166.838 201.256C165.596 202.155 164.869 203.109 165.219 204.674L165.173 204.712C162.345 202.1 159.58 199.391 155.606 198.551C155.34 198.495 155.157 198.322 155.256 198.064C155.391 197.706 155.723 197.432 156.091 197.546C156.764 197.76 157.413 198.058 158.047 198.368C159.268 198.964 160.18 200.104 161.582 200.378C161.648 200.425 161.713 200.471 161.775 200.517C161.725 200.459 161.672 200.398 161.624 200.34C160.442 197.851 159.173 195.464 156.144 194.775C152.698 193.994 149.272 193.061 146.064 191.605C140.042 188.87 133.679 186.647 129.124 181.446C128.497 180.729 127.974 180.959 127.571 181.664C126.86 182.913 126.087 184.155 125.944 185.617C125.871 186.349 125.635 186.532 124.89 186.689C121.573 187.39 118.514 188.856 115.211 189.984C116.017 190.636 116.659 191.156 117.299 191.676L117.211 191.764C113.928 189.688 111.632 191.623 109.364 193.69C108.478 194.497 107.562 195.271 106.692 196.096C102.954 199.655 99.1753 203.18 95.977 207.375C95.6185 206.73 95.0103 206.235 95.7212 205.447C96.2811 204.827 95.971 204.245 95.2862 204.07C94.3456 203.828 93.1836 203.74 92.7525 204.807C91.9711 206.736 90.4384 207.645 88.6601 208.315C87.2865 208.835 87.0448 209.719 87.5725 211.02C88.5533 213.443 89.9651 215.61 91.7415 217.475C92.8613 218.651 93.4232 220.462 95.2822 220.875C95.2157 221.608 95.4775 222.208 96.0112 222.704C96.1603 224.119 96.3113 225.535 96.4604 226.953C96.8148 225.263 96.6557 223.608 96.4322 221.954C96.5047 221.604 96.6356 221.256 96.6376 220.905C96.6577 219.125 97.2841 218.136 99.3162 218.251C100.605 218.323 101.969 217.646 103.207 217.852C105.227 218.188 105.876 216.772 106.738 215.618C108.738 212.934 110.619 210.158 112.629 207.48C113.479 206.34 114.387 205.182 115.914 204.36V207.339C116.719 206.215 116.417 205.061 116.796 204.052C117.134 203.147 117.624 202.823 118.544 202.972C123.825 203.826 128.638 205.786 132.928 208.998C134.427 210.122 135.214 211.558 134.993 213.479C134.87 214.523 134.624 215.61 133.704 216.122C132.789 216.629 132.33 215.427 131.597 215.127C131.432 215.058 131.285 214.948 131.13 214.857C131.015 214.768 130.896 214.682 130.779 214.593C130.602 214.531 130.425 214.466 130.248 214.402L130.07 214.14C130.006 214.194 129.941 214.251 129.877 214.305C129.972 214.364 130.066 214.418 130.161 214.474C130.163 214.734 130.344 214.793 130.552 214.819C130.669 214.944 130.783 215.066 130.898 215.191C131.263 215.576 131.567 216.049 132 216.329C134.076 217.673 134.243 219.519 133.488 221.632C133.23 222.359 133.001 223.102 132.662 223.791C131.516 226.123 131.327 226.166 129.216 224.798C128.852 224.269 128.36 223.92 127.744 223.745C127.591 223.425 127.357 223.37 127.057 223.535C127.192 223.695 127.329 223.854 127.468 224.013C127.921 224.375 128.379 224.736 128.834 225.1C130.397 226.391 131.357 227.757 130.733 230.049C129.436 234.784 126.294 236.365 120.762 235.142C120.828 234.737 121.579 234.844 121.408 234.192C119.352 234.735 117.249 234.56 115.157 234.608C114.78 234.617 114.21 234.339 114.049 234.866C113.547 236.512 112.081 237.378 111.094 238.622C108.206 242.262 108.164 242.23 104.047 240.197C103.826 240.584 104.114 240.888 104.23 241.208C104.371 241.595 104.567 241.962 104.736 242.338Z" fill="#F4CF91"/>
<path d="M130.231 199.424C130.229 196.117 128.014 193.553 125.242 193.243C123.941 193.097 122.823 193.506 122.292 194.795C121.446 196.842 120.622 198.892 119.353 200.727C118.856 201.446 119.126 201.917 119.881 201.977C122.435 202.181 124.678 203.401 127.089 204.068C128.177 204.37 128.853 204.118 129.242 203.111C129.756 201.772 130.175 200.404 130.231 199.424ZM162.628 257.27C162.647 250.251 157.65 245.202 150.663 245.178C143.658 245.152 138.535 250.328 138.575 257.395C138.613 264.378 143.681 269.479 150.599 269.495C157.63 269.513 162.61 264.45 162.628 257.27ZM139.524 311.143C139.524 322.063 139.546 332.983 139.495 343.903C139.489 345.2 139.743 345.635 141.145 345.617C147.628 345.533 154.109 345.549 160.592 345.607C161.823 345.617 162.218 345.323 162.216 344.034C162.175 322.194 162.169 300.354 162.222 278.514C162.226 277.008 161.696 276.762 160.363 276.776C154 276.834 147.638 276.849 141.274 276.768C139.84 276.75 139.485 277.159 139.493 278.562C139.55 289.422 139.524 300.284 139.524 311.143ZM188.43 228.832C186.905 233.396 185.387 237.964 183.844 242.524C183.689 242.981 183.502 243.414 183.572 243.905C181.19 249.522 179.113 255.299 176.326 260.706C174.082 265.05 174.388 269.699 173.685 274.192C172.163 283.906 171.383 293.722 170.564 303.528C169.758 313.212 170.87 322.682 172.934 332.099C173.371 334.091 173.786 336.085 173.915 338.127C173.969 338.955 174.092 339.748 175.307 339.305C176.273 338.951 176.692 339.712 176.829 340.387C177.508 343.776 179.562 344.62 182.765 344.042C184.456 343.738 186.233 344.131 187.937 344.504C191.073 345.188 192.849 347.057 193.314 350.237C193.477 351.361 193.596 352.505 193.576 353.639C193.554 354.823 193.922 355.619 194.917 356.36C196.682 357.677 195.888 359.699 195.779 361.379C195.687 362.785 194.184 362.513 193.143 362.563C179.458 363.228 165.772 362.495 152.091 362.6C145.797 362.648 139.506 363.24 133.2 362.89C128.283 362.614 123.387 362.173 118.525 361.395C117.037 361.157 115.748 360.658 115.371 358.934C114.971 357.089 115.16 355.393 116.81 354.28C118.032 353.454 118.165 352.672 117.442 351.444C116.934 350.58 116.622 349.581 116.346 348.608C115.712 346.356 116.205 345.043 118.284 343.982C119.873 343.168 120.596 341.986 121.029 340.272C125.238 323.618 126.239 306.523 128.092 289.545C128.847 282.629 129.826 275.737 130.519 268.815C131.679 257.192 127.945 247.214 120.016 238.731C119.442 238.117 118.86 237.509 118.284 236.896C116.658 235.168 116.272 235.154 114.449 236.766C113.047 238.004 111.881 239.452 110.782 240.957C108.838 243.613 108.844 243.611 105.791 242.56C105.452 242.445 105.088 242.411 104.735 242.34C104.564 241.964 104.369 241.595 104.228 241.21C104.111 240.888 103.823 240.584 104.045 240.199C108.161 242.23 108.204 242.264 111.092 238.622C112.079 237.38 113.545 236.514 114.046 234.868C114.207 234.341 114.777 234.619 115.154 234.611C117.247 234.562 119.349 234.737 121.406 234.194C121.577 234.844 120.825 234.739 120.759 235.144C126.292 236.367 129.433 234.786 130.73 230.051C131.359 227.759 130.394 226.393 128.831 225.102C128.958 225 129.087 224.899 129.214 224.8C131.325 226.168 131.514 226.125 132.66 223.793C132.998 223.104 133.228 222.361 133.486 221.634C134.241 219.521 134.074 217.675 131.997 216.331C131.564 216.051 131.26 215.578 130.896 215.193C130.974 215.081 131.051 214.97 131.127 214.859C131.282 214.95 131.429 215.06 131.594 215.129C132.328 215.429 132.789 216.629 133.701 216.124C134.622 215.612 134.867 214.525 134.99 213.481C135.216 211.56 134.424 210.122 132.926 209C128.636 205.788 123.822 203.828 118.542 202.974C117.621 202.825 117.132 203.149 116.793 204.054C116.419 205.063 116.717 206.217 115.915 207.341V204.362C114.385 205.184 113.48 206.342 112.626 207.48C110.616 210.16 108.735 212.936 106.735 215.62C105.873 216.774 105.225 218.19 103.205 217.854C101.966 217.648 100.603 218.325 99.3137 218.253C97.2856 218.138 96.6552 219.127 96.6351 220.907C96.633 221.258 96.5021 221.606 96.4296 221.956C96.2886 222.206 96.1477 222.456 96.0087 222.706C95.475 222.21 95.2132 221.61 95.2796 220.877C95.3924 220.607 95.5354 220.343 95.616 220.061C96.3309 217.473 96.5102 217.33 99.1606 217.3C100.778 217.282 102.373 217.119 103.918 216.605C104.258 216.662 104.552 216.611 104.699 216.245C105.465 216.265 105.626 215.618 105.952 215.135C107.662 212.603 109.315 210.033 111.12 207.57C112.457 205.746 113.738 203.83 115.794 202.66C118.58 201.075 119.998 198.481 120.825 195.526C121.335 193.718 122.95 192.272 124.723 192.268C128.72 192.256 131.782 195.907 131.127 199.883C130.924 201.137 130.565 202.322 129.921 203.421C129.182 204.684 129.584 205.574 130.837 206.187C131.266 206.396 131.701 206.599 132.1 206.863C136.819 209.987 137.218 211.886 135.016 216.365C134.809 216.784 134.43 217.179 134.613 217.697C135.645 220.621 134.553 223.046 132.926 225.406C131.967 226.794 131.532 228.379 131.754 230.186C132.029 230.087 132.205 230.057 132.344 229.968C132.541 229.839 132.728 229.68 132.891 229.507C135.635 226.599 137.91 223.364 139.081 219.517C140.198 215.84 141.318 212.281 139.773 208.217C137.419 202.014 134.521 196.207 130.358 191.041C130.571 191.029 130.783 191.017 130.996 191.003C134.483 193.78 137.798 196.773 141.463 199.325C141.743 199.975 141.938 200.704 142.694 200.984C143.783 201.391 144.347 202.275 144.845 203.234C145.495 205.206 146.236 207.153 146.764 209.157C147.038 210.205 147.545 210.458 148.516 210.446C154.303 210.382 160.091 210.36 165.877 210.321C166.026 210.315 166.175 210.311 166.324 210.305C169.966 210.348 173.611 210.362 177.254 210.45C178.388 210.476 178.88 210.078 178.493 208.99C177.506 206.207 176.793 203.313 175.299 200.725C174.753 199.556 175.069 198.298 174.918 197.087L174.848 194.33C175.23 193.796 175.75 193.776 176.318 193.937C176.427 194.382 176.646 194.751 177.059 194.979C177.186 195.103 177.315 195.228 177.442 195.355L177.421 195.341L181.351 200.781C181.695 201.538 182.032 202.302 182.384 203.055C185.139 208.942 187.941 214.803 188.783 221.37C189.105 223.9 189.159 226.373 188.43 228.832Z" fill="black"/>
<path d="M98.0151 301.792C103.526 301.792 109.037 301.755 114.548 301.809C116.936 301.831 117.487 302.466 117.487 304.809C117.485 310.031 117.756 315.266 116.991 320.456C115.392 331.289 111.247 340.738 102.018 347.321C96.7688 351.065 90.8024 353.013 84.5058 354.012C74.8155 355.552 65.3685 354.632 56.2993 350.802C46.1102 346.498 39.3284 338.788 34.8189 328.895C33.6284 326.284 32.6308 323.593 31.9934 320.788C31.25 317.511 32.2503 315.998 35.5569 315.574C37.1171 315.372 38.7086 315.372 40.2852 315.365C43.1556 315.353 46.0368 315.042 48.895 315.544C53.9753 316.436 57.7766 319.301 60.7068 323.396C63.2401 326.94 66.2791 329.842 70.4814 331.235C77.5921 333.592 83.7909 331.75 89.215 326.862C90.4735 325.728 91.5418 324.385 92.6834 323.125C93.2148 322.538 93.6293 321.914 93.2161 321.051C92.8234 320.231 92.0881 320.228 91.3596 320.191C87.9252 320.02 84.4718 320.157 81.0618 319.611C78.2091 319.154 76.9221 317.93 76.6951 315.104C76.4178 311.633 76.4328 308.143 77.0743 304.695C77.4331 302.764 78.3192 301.99 80.2654 301.815C80.9504 301.754 81.6394 301.716 82.3271 301.716C87.5569 301.708 92.7853 301.71 98.0151 301.71V301.792Z" fill="black"/>
<path d="M105.742 292.022C103.354 292.022 100.961 292.126 98.5784 291.997C94.459 291.776 90.8139 290.138 87.8891 287.328C79.4084 279.177 67.8875 282.796 62.2976 289.218C61.2035 290.475 60.2249 291.81 59.3646 293.233C56.5364 297.909 52.5108 300.36 46.9222 300.194C42.7947 300.072 38.659 300.172 34.526 300.167C33.9592 300.165 33.3844 300.18 32.8285 300.091C31.4354 299.865 30.798 298.965 31.0997 297.571C31.2669 296.79 31.5808 296.034 31.869 295.282C33.2281 291.739 34.2596 288.074 35.8103 284.604C40.5943 273.907 48.7828 266.997 59.7044 263.076C74.176 257.879 88.0019 259.064 101.097 267.22C108.584 271.884 113.278 278.676 115.629 287.118C116.626 290.697 115.408 292.137 111.698 292C109.958 291.938 108.213 291.985 106.471 291.982H105.742V292.022Z" fill="black"/>
<path d="M219.981 174.869C219.347 175.067 218.65 175.139 218.09 175.695C216.553 177.218 215.071 178.777 213.969 180.652C212.892 182.47 213.002 183.28 214.537 184.692C215.155 185.264 215.864 185.691 216.642 186.037C217.592 186.46 218.227 186.301 218.652 185.304C219.673 182.911 221.25 180.875 222.887 178.887C224.462 176.974 224.176 175.985 221.778 175.244C221.208 175.069 220.609 174.996 219.981 174.869ZM224.768 190.242C225.775 190.281 226.323 190.152 226.539 189.308C227.187 186.752 228.75 184.728 230.422 182.756C232.232 180.613 231.991 179.604 229.449 178.265C226.599 176.761 225.715 176.895 223.624 179.343C222.617 180.519 221.645 181.745 220.809 183.046C218.301 186.947 219.006 188.684 223.5 189.922C224.013 190.063 224.535 190.184 224.768 190.242ZM239.956 190.549C238.816 190.949 238.411 190.611 238.579 189.368C238.73 188.247 238.667 187.097 238.689 185.957C238.726 184.021 238.001 182.694 236.031 181.989C234.029 181.27 232.694 181.943 231.493 183.457C230.295 184.964 229.167 186.506 228.235 188.194C227.634 189.278 227.88 190.087 228.841 190.841C231.737 193.102 234.166 192.764 236.343 189.749C236.689 189.268 237.054 188.8 237.473 188.24C237.894 188.953 237.533 189.511 237.251 189.916C236.234 191.376 237.028 191.6 238.317 191.821C241.612 192.393 244.774 191.876 247.871 190.806C252.248 189.298 256.614 187.878 261.343 187.971C265.917 188.061 269.701 189.737 272.847 193.046C276.619 197.016 280.21 201.106 282.788 205.99C283.803 207.919 284.553 209.925 284.774 212.101C284.867 213.009 284.826 213.943 283.969 214.536C283.03 215.19 282.386 214.384 281.739 213.935C277.552 211.031 273.57 207.831 269.244 205.12C267.995 204.337 266.722 204.049 265.303 204.395C260.016 205.682 254.902 212.002 254.638 217.428C254.489 220.505 255.587 222.906 258.018 224.763C261.271 227.25 264.843 229.214 268.38 231.248C268.902 231.548 269.832 231.586 269.719 232.472C269.609 233.348 268.741 233.419 268.07 233.622C264.513 234.698 261.051 233.822 257.605 233.044C254.793 232.41 252.139 231.294 249.478 230.195C243.791 227.846 239.912 223.75 237.443 218.191C236.565 216.223 235.582 214.302 234.597 212.383C233.721 210.681 233.842 208.924 234.097 207.12C234.176 206.56 234.669 205.718 233.678 205.458C232.967 205.269 232.14 205.335 231.789 206.115C231.173 207.492 230.263 207.275 229.131 206.876C211.844 200.776 194.337 195.338 176.972 189.475C175.991 189.143 174.772 189.324 174.047 188.281C175.171 186.974 176.48 187.264 177.848 187.723C188.689 191.374 199.537 195.01 210.374 198.661C211.464 199.026 212.543 199.386 213.701 199.36C216.134 199.301 218.034 197.751 218.473 195.493C218.912 193.221 217.782 191.014 215.46 190.186C209.307 187.999 203.122 185.9 196.931 183.82C191.021 181.834 185.096 179.904 179.163 177.989C178.077 177.639 177.463 177.186 177.499 175.874C177.54 174.521 177.225 173.157 177.04 171.568C181.447 173.075 185.674 174.515 189.896 175.963C196.81 178.338 203.732 180.688 210.624 183.117C211.937 183.58 212.406 183.385 212.128 181.973C213.369 179.262 215.141 176.95 217.355 174.962C219.103 173.391 220.537 173.145 222.561 174.374C224.436 175.516 226.376 176.311 228.569 176.601C230.118 176.805 231.352 177.735 232.218 179.022C232.778 179.856 233.378 180.16 234.418 180.168C238.204 180.196 239.904 181.935 239.972 185.687C239.998 187.306 239.964 188.927 239.956 190.549Z" fill="black"/>
<path d="M221.824 217.587C221.679 217.188 220.897 217.478 220.992 216.836C221.081 216.253 221.552 216.34 221.965 216.306C223.207 216.203 224.718 217.244 225.632 215.835C226.293 214.815 226.482 213.496 226.948 212.338C227.111 211.935 226.933 211.287 227.558 211.168C228.083 211.069 228.265 211.494 228.384 211.921C227.866 213.484 227.298 215.035 226.847 216.62C226.504 217.82 225.836 218.235 224.625 217.979C223.705 217.786 222.758 217.712 221.824 217.587Z" fill="#0A0909"/>
<path d="M118.365 192.407C118.288 192.357 118.212 192.307 118.135 192.254C118.194 192.323 118.252 192.393 118.311 192.464C118.438 192.576 118.564 192.693 118.689 192.806C118.838 193.114 119.092 193.213 119.414 193.162L119.777 193.523C119.9 193.64 120.021 193.759 120.145 193.875C120.198 193.94 120.252 194.002 120.309 194.065C120.303 194.026 120.313 193.97 120.29 193.95C120.252 193.916 120.192 193.902 120.143 193.877C120.023 193.757 119.906 193.636 119.785 193.513L119.424 193.154C119.285 192.846 119.038 192.746 118.715 192.782C118.599 192.657 118.484 192.532 118.365 192.407ZM103.922 216.606C102.38 217.119 100.785 217.282 99.1674 217.298C96.5149 217.329 96.3357 217.472 95.6187 220.06C95.5421 220.342 95.3992 220.606 95.2864 220.877C93.4274 220.463 92.8655 218.652 91.7437 217.476C89.9673 215.611 88.5555 213.444 87.5767 211.021C87.049 209.722 87.2887 208.836 88.6643 208.316C90.4426 207.645 91.9733 206.737 92.7547 204.808C93.1878 203.74 94.3478 203.829 95.2904 204.072C95.9752 204.246 96.2853 204.828 95.7254 205.448C95.0125 206.235 95.6227 206.731 95.9812 207.377C99.1795 203.182 102.958 199.658 106.696 196.097C107.566 195.271 108.482 194.5 109.366 193.692C111.634 191.624 113.932 189.688 117.217 191.765C117.3 191.811 117.384 191.857 117.467 191.904C117.41 191.827 117.358 191.753 117.304 191.676C116.661 191.157 116.021 190.639 115.215 189.984C118.516 188.856 121.577 187.39 124.892 186.691C125.638 186.532 125.875 186.351 125.948 185.618C126.091 184.156 126.864 182.913 127.573 181.666C127.974 180.96 128.5 180.732 129.128 181.447C133.68 186.647 140.046 188.873 146.068 191.608C149.276 193.064 152.702 193.996 156.148 194.778C159.177 195.464 160.446 197.851 161.624 200.34L161.586 200.379C160.184 200.105 159.272 198.965 158.051 198.369C157.417 198.061 156.766 197.76 156.094 197.549C155.727 197.434 155.395 197.706 155.258 198.065C155.161 198.324 155.342 198.496 155.612 198.552C159.584 199.392 162.349 202.101 165.177 204.713C165.241 204.965 165.306 205.216 165.37 205.468C165.415 205.436 165.489 205.412 165.499 205.371C165.578 205.075 165.497 204.834 165.223 204.675C164.873 203.11 165.6 202.155 166.84 201.257C168.043 200.387 169.574 200.133 170.653 199.023C170.836 198.836 171.811 199.42 172.421 199.65L172.409 199.634C172.417 200.632 172.822 201.462 173.501 202.175L173.489 202.159C173.451 203.096 173.958 203.772 174.484 204.566C175.412 203.305 174.421 201.823 175.303 200.723C176.8 203.313 177.511 206.205 178.498 208.989C178.886 210.076 178.395 210.477 177.259 210.449C173.618 210.362 169.972 210.348 166.327 210.306C166.277 209.538 166.224 208.771 166.172 208.004C166.119 208.008 166.069 208.012 166.017 208.016C165.972 208.783 165.928 209.553 165.884 210.322C160.098 210.358 154.309 210.382 148.523 210.447C147.55 210.457 147.043 210.203 146.771 209.158C146.243 207.154 145.502 205.204 144.851 203.233C145.832 203.275 146.485 203.931 147.149 204.513C148.08 205.327 149.02 206.967 149.828 206.892C151.208 206.765 150.851 204.735 151.594 203.67C152.593 202.238 153.421 200.687 154.374 199.102C153.743 198.985 153.568 199.311 153.355 199.583C152.239 200.997 151.258 202.497 150.519 204.143C149.971 205.361 149.359 205.68 148.281 204.592C146.902 203.188 145.397 201.905 143.967 200.548C143.252 199.871 142.515 199.295 141.47 199.323C137.802 196.772 134.489 193.781 131.001 191.003C130.91 190.854 130.846 190.673 130.723 190.56C130.211 190.103 129.851 189.426 129.068 189.358C128.999 189.352 128.812 189.622 128.836 189.737C128.989 190.572 129.795 190.673 130.365 191.042C134.526 196.208 137.426 202.012 139.78 208.215C141.323 212.282 140.205 215.84 139.085 219.516C137.915 223.365 135.639 226.597 132.898 229.505C132.735 229.679 132.548 229.838 132.348 229.967C132.211 230.057 132.034 230.086 131.758 230.184C131.539 228.378 131.974 226.795 132.93 225.407C134.558 223.045 135.649 220.62 134.618 217.697C134.435 217.178 134.816 216.783 135.023 216.364C137.222 211.887 136.826 209.986 132.105 206.862C131.708 206.6 131.271 206.395 130.842 206.185C129.589 205.575 129.186 204.685 129.926 203.422C130.572 202.322 130.928 201.136 131.134 199.881C131.786 195.908 128.727 192.254 124.727 192.266C122.955 192.272 121.342 193.716 120.832 195.527C120 198.479 118.585 201.076 115.801 202.659C113.743 203.831 112.462 205.746 111.125 207.571C109.322 210.032 107.667 212.604 105.959 215.133C105.632 215.617 105.471 216.263 104.706 216.245C103.421 214.682 102.066 213.21 99.7374 212.108C100.976 214.247 102.972 214.932 103.922 216.606Z" fill="#FAFAFA"/>
<path d="M177.064 194.979C176.651 194.751 176.435 194.383 176.323 193.938C179.182 194.067 181.676 195.474 184.328 196.296C189.506 197.899 194.612 199.722 199.748 201.45C200.207 201.605 200.642 201.782 200.932 202.201C199.929 203.311 200.167 204.322 201.127 205.329C201.826 206.058 202.458 206.852 203.121 207.615C202.493 210 200.66 211.554 199.002 213.117C197.917 214.14 196.324 213.111 196.179 211.526C195.907 208.493 195.15 207.754 192.338 208.402C190.606 208.801 189.694 207.941 188.846 206.856C185.883 203.059 182.429 199.73 179.027 196.351C178.576 195.905 178.228 195.249 177.426 195.341L177.446 195.356C177.436 195.112 177.283 195.011 177.064 194.979Z" fill="#FAFAFA"/>
<path d="M188.438 228.831C189.165 226.372 189.113 223.898 188.79 221.369C187.948 214.803 185.145 208.942 182.39 203.053C182.037 202.3 181.701 201.539 181.357 200.781C183.185 201.231 183.906 202.924 184.964 204.159C186.935 206.457 189.32 208.449 190.651 211.305C190.754 211.234 190.937 211.166 191.028 211.037C191.644 210.133 192.236 209.087 193.551 209.426C194.903 209.774 195.058 210.968 195.134 212.147C195.203 213.194 195.648 214.032 196.719 214.3C197.724 214.549 197.878 215.037 197.312 215.82C195.346 218.555 193.753 221.471 192.462 224.603C191.721 226.404 190.18 227.8 188.438 228.831Z" fill="#FAFAFA"/>
<path d="M174.852 194.33C174.877 195.25 174.899 196.169 174.923 197.089C174.224 198.439 174.625 199.889 174.607 201.284C174.593 202.249 174.264 202.38 173.487 202.16L173.499 202.177C173.582 201.137 173.338 200.239 172.407 199.635L172.42 199.651C172.359 198.767 171.624 198.368 171.086 197.846C170.637 197.413 170.319 197.562 169.767 197.973C168.506 198.908 167.441 200.122 165.977 200.783L165.882 200.688C166.883 198.245 167.83 195.758 170.23 194.278C171.044 193.774 170.957 193.299 170.331 192.735C169.594 192.068 169.115 191.285 169.187 190.056C171.618 190.924 172.474 193.665 174.852 194.33Z" fill="#FAFAFA"/>
<path d="M203.12 207.615C202.46 206.851 201.825 206.06 201.128 205.329C200.166 204.322 199.926 203.311 200.931 202.201C201.565 202.197 202.514 201.748 202.073 203.125C201.634 204.511 202.913 205.069 203.551 205.909C204.172 206.726 204.468 207.347 203.12 207.615Z" fill="#211C14"/>
<path d="M96.0153 222.706C96.1543 222.456 96.2973 222.207 96.4363 221.957C96.6598 223.61 96.8189 225.266 96.4665 226.956C96.3154 225.538 96.1644 224.122 96.0153 222.706Z" fill="#5B5B5C"/>
<path d="M127.745 223.748C128.364 223.923 128.855 224.271 129.216 224.799C129.091 224.9 128.962 225 128.835 225.101C128.378 224.739 127.925 224.376 127.469 224.016C127.562 223.925 127.653 223.836 127.745 223.748Z" fill="#080808"/>
<path d="M127.468 224.014C127.332 223.855 127.193 223.697 127.059 223.538C127.358 223.374 127.593 223.428 127.743 223.747C127.651 223.837 127.56 223.925 127.468 224.014Z" fill="#080808"/>
<path d="M161.626 200.342C161.674 200.4 161.727 200.46 161.777 200.518C161.715 200.472 161.65 200.426 161.584 200.382L161.626 200.342Z" fill="#FAFAFA"/>
<path d="M165.979 200.78C165.903 200.823 165.825 200.866 165.75 200.906C165.793 200.833 165.84 200.759 165.885 200.684L165.979 200.78Z" fill="#FAFAFA"/>
<path d="M130.161 214.478C130.068 214.422 129.974 214.365 129.88 214.309C129.946 214.255 130.008 214.199 130.072 214.143L130.249 214.406L130.161 214.478Z" fill="#080808"/>
<path d="M130.552 214.821C130.344 214.795 130.165 214.737 130.163 214.478L130.249 214.406C130.428 214.47 130.603 214.532 130.779 214.596C130.701 214.669 130.627 214.745 130.552 214.821Z" fill="#080808"/>
<path d="M130.9 215.193C130.786 215.069 130.671 214.944 130.555 214.822C130.629 214.746 130.703 214.669 130.782 214.597C130.898 214.686 131.016 214.772 131.131 214.858C131.055 214.97 130.978 215.081 130.9 215.193Z" fill="#080808"/>
<path d="M130.234 199.424C130.178 200.405 129.759 201.773 129.245 203.112C128.857 204.119 128.18 204.371 127.092 204.069C124.681 203.402 122.438 202.181 119.884 201.978C119.129 201.918 118.859 201.446 119.356 200.727C120.625 198.893 121.449 196.842 122.295 194.796C122.827 193.507 123.944 193.098 125.245 193.243C128.017 193.553 130.232 196.117 130.234 199.424Z" fill="#F4CF91"/>
<path d="M141.468 199.324C142.515 199.296 143.252 199.872 143.965 200.549C145.395 201.906 146.899 203.189 148.283 204.593C149.357 205.68 149.971 205.362 150.517 204.144C151.256 202.498 152.239 200.998 153.352 199.582C153.566 199.312 153.743 198.986 154.371 199.103C153.421 200.688 152.589 202.238 151.592 203.67C150.849 204.736 151.205 206.766 149.826 206.893C149.018 206.967 148.078 205.328 147.147 204.514C146.483 203.932 145.83 203.276 144.851 203.233C144.352 202.275 143.786 201.391 142.698 200.986C141.943 200.706 141.748 199.975 141.468 199.324Z" fill="#F4CF91"/>
<path d="M103.922 216.605C102.972 214.932 100.976 214.247 99.737 212.11C102.065 213.21 103.421 214.682 104.706 216.245C104.557 216.61 104.265 216.662 103.922 216.605Z" fill="#F4CF91"/>
<path d="M173.489 202.158C174.266 202.378 174.594 202.247 174.608 201.282C174.625 199.886 174.226 198.436 174.925 197.087C175.074 198.297 174.76 199.556 175.303 200.724C174.421 201.822 175.412 203.304 174.484 204.565C173.956 203.771 173.448 203.095 173.489 202.158Z" fill="#F4CF91"/>
<path d="M130.364 191.041C129.794 190.674 128.989 190.574 128.836 189.738C128.813 189.623 128.999 189.353 129.069 189.359C129.851 189.428 130.211 190.104 130.723 190.562C130.846 190.674 130.91 190.856 131.001 191.003C130.789 191.017 130.576 191.029 130.364 191.041Z" fill="#F4CF91"/>
<path d="M165.88 210.32C165.922 209.55 165.968 208.783 166.012 208.014C166.065 208.012 166.115 208.007 166.17 208.003C166.22 208.769 166.272 209.536 166.327 210.303C166.174 210.31 166.029 210.314 165.88 210.32Z" fill="#B4B4B5"/>
<path d="M177.064 194.979C177.282 195.011 177.435 195.112 177.445 195.355C177.319 195.23 177.19 195.104 177.064 194.979Z" fill="#F4CF91"/>
<path d="M224.769 190.244C224.536 190.186 224.014 190.065 223.501 189.924C219.007 188.685 218.302 186.947 220.81 183.048C221.646 181.747 222.618 180.52 223.625 179.342C225.716 176.897 226.6 176.762 229.45 178.265C231.992 179.606 232.233 180.615 230.423 182.758C228.755 184.73 227.188 186.754 226.54 189.31C226.324 190.153 225.776 190.282 224.769 190.244Z" fill="#F4CF91"/>
<path d="M219.981 174.87C220.61 174.997 221.208 175.07 221.778 175.245C224.176 175.986 224.462 176.975 222.887 178.888C221.25 180.876 219.673 182.912 218.652 185.305C218.227 186.302 217.593 186.461 216.642 186.038C215.865 185.692 215.156 185.265 214.537 184.693C213.003 183.281 212.892 182.471 213.969 180.652C215.071 178.777 216.553 177.219 218.09 175.696C218.65 175.14 219.347 175.068 219.981 174.87Z" fill="#F4CF91"/>
<path d="M172.407 199.636C173.337 200.24 173.581 201.138 173.498 202.175C172.82 201.464 172.415 200.635 172.407 199.636Z" fill="#F4CF91"/>
<path d="M165.22 204.677C165.496 204.836 165.577 205.075 165.498 205.372C165.488 205.414 165.414 205.436 165.367 205.47C165.303 205.218 165.24 204.967 165.178 204.715L165.22 204.677Z" fill="#F4CF91"/>
<path d="M118.714 192.782C119.036 192.748 119.284 192.848 119.427 193.157L119.417 193.165C119.09 193.215 118.838 193.116 118.687 192.808L118.714 192.782Z" fill="#F4CF91"/>
<path d="M120.14 193.881C120.188 193.903 120.248 193.917 120.287 193.951C120.309 193.971 120.299 194.027 120.305 194.067C120.25 194.005 120.194 193.941 120.142 193.879L120.14 193.881Z" fill="#F4CF91"/>
<path d="M119.784 193.515C119.904 193.638 120.021 193.758 120.141 193.879L120.143 193.877C120.019 193.76 119.898 193.642 119.776 193.523L119.784 193.515Z" fill="#F4CF91"/>
<path d="M119.775 193.523L119.416 193.163L119.424 193.155L119.783 193.515L119.775 193.523Z" fill="#F4CF91"/>
<path d="M118.688 192.808C118.563 192.693 118.437 192.579 118.31 192.466L118.367 192.408L118.714 192.782L118.688 192.808Z" fill="#F4CF91"/>
<path d="M118.307 192.465C118.25 192.394 118.189 192.325 118.13 192.253C118.207 192.306 118.285 192.357 118.362 192.408L118.307 192.465Z" fill="#F4CF91"/>
<path d="M117.304 191.678C117.358 191.754 117.412 191.828 117.466 191.904C117.384 191.856 117.3 191.81 117.218 191.766L117.304 191.678Z" fill="#F4CF91"/>
<path d="M155.488 147.423C155.717 147.518 156.158 147.162 155.824 146.656C155.043 145.474 156.181 145.746 156.487 145.804C157.536 146.003 158.203 146.664 158.088 147.814C157.987 148.835 157.373 149.534 156.35 149.522C155.315 149.51 154.509 148.962 154.402 147.804C154.366 147.399 154.285 146.743 155.488 147.423Z" fill="#0A0909"/>
<path d="M208.9 78.14C207.713 78.14 206.667 77.8933 205.76 77.4C204.867 76.9067 204.173 76.2133 203.68 75.32C203.187 74.4267 202.94 73.4 202.94 72.24C202.94 70.6 203.293 69.14 204 67.86C204.707 66.5667 205.687 65.56 206.94 64.84C208.207 64.12 209.64 63.76 211.24 63.76C212.44 63.76 213.493 64.0067 214.4 64.5C215.307 64.98 216.007 65.6667 216.5 66.56C216.993 67.44 217.24 68.4533 217.24 69.6C217.24 71.24 216.887 72.7133 216.18 74.02C215.473 75.3133 214.487 76.3267 213.22 77.06C211.953 77.78 210.513 78.14 208.9 78.14ZM209.42 74.98C210.3 74.98 211.073 74.7533 211.74 74.3C212.407 73.8467 212.92 73.24 213.28 72.48C213.653 71.7067 213.84 70.8733 213.84 69.98C213.84 69.02 213.573 68.2667 213.04 67.72C212.507 67.1733 211.76 66.9 210.8 66.9C209.92 66.9 209.14 67.1267 208.46 67.58C207.793 68.0333 207.273 68.64 206.9 69.4C206.54 70.1467 206.36 70.9733 206.36 71.88C206.36 72.84 206.627 73.6 207.16 74.16C207.693 74.7067 208.447 74.98 209.42 74.98ZM230.923 66.84L228.963 78H225.543L225.803 76.48C225.363 76.9733 224.823 77.3733 224.183 77.68C223.556 77.9733 222.883 78.12 222.163 78.12C221.043 78.12 220.163 77.8067 219.523 77.18C218.883 76.54 218.563 75.6533 218.563 74.52C218.563 74.0933 218.596 73.7067 218.663 73.36L219.823 66.84H223.223L222.163 72.9C222.123 73.1133 222.103 73.32 222.103 73.52C222.103 74.08 222.256 74.5133 222.563 74.82C222.883 75.1133 223.323 75.26 223.883 75.26C224.523 75.26 225.063 75.0733 225.503 74.7C225.956 74.3133 226.256 73.7667 226.403 73.06L227.503 66.84H230.923ZM236.519 68.42C236.946 67.9 237.479 67.48 238.119 67.16C238.773 66.84 239.493 66.68 240.279 66.68C241.479 66.68 242.446 67.0733 243.179 67.86C243.926 68.6467 244.299 69.7133 244.299 71.06C244.299 71.4733 244.259 71.92 244.179 72.4C243.979 73.5467 243.586 74.56 242.999 75.44C242.413 76.3067 241.706 76.98 240.879 77.46C240.053 77.9267 239.179 78.16 238.259 78.16C237.486 78.16 236.833 78 236.299 77.68C235.766 77.36 235.373 76.9467 235.119 76.44L233.899 83.32H230.479L233.379 66.84H236.799L236.519 68.42ZM240.719 72.4C240.759 72.1733 240.779 71.9667 240.779 71.78C240.779 71.1133 240.586 70.5933 240.199 70.22C239.826 69.8467 239.346 69.66 238.759 69.66C238.079 69.66 237.459 69.9067 236.899 70.4C236.339 70.8933 235.979 71.5667 235.819 72.42C235.779 72.66 235.759 72.88 235.759 73.08C235.759 73.7333 235.946 74.2467 236.319 74.62C236.693 74.9933 237.173 75.18 237.759 75.18C238.439 75.18 239.059 74.9333 239.619 74.44C240.193 73.9333 240.559 73.2533 240.719 72.4ZM249.633 78.16C248.753 78.16 247.96 78.02 247.253 77.74C246.56 77.46 246.013 77.0733 245.613 76.58C245.213 76.0733 245.013 75.4933 245.013 74.84C245.013 74.7467 245.027 74.58 245.053 74.34H248.353C248.327 74.7533 248.447 75.0867 248.713 75.34C248.993 75.58 249.387 75.7 249.893 75.7C250.32 75.7 250.673 75.62 250.953 75.46C251.233 75.3 251.373 75.0733 251.373 74.78C251.373 74.5 251.22 74.28 250.913 74.12C250.62 73.9467 250.127 73.74 249.433 73.5C248.713 73.26 248.107 73.0267 247.613 72.8C247.133 72.56 246.72 72.22 246.373 71.78C246.027 71.34 245.853 70.7867 245.853 70.12C245.853 69.4667 246.047 68.88 246.433 68.36C246.82 67.8267 247.36 67.4133 248.053 67.12C248.76 66.8267 249.573 66.68 250.493 66.68C251.413 66.68 252.213 66.8333 252.893 67.14C253.573 67.4333 254.1 67.8467 254.473 68.38C254.847 68.9133 255.033 69.5133 255.033 70.18L255.013 70.48H251.913C251.94 70.08 251.82 69.76 251.553 69.52C251.287 69.28 250.907 69.16 250.413 69.16C250.027 69.16 249.707 69.24 249.453 69.4C249.213 69.56 249.093 69.78 249.093 70.06C249.093 70.3533 249.253 70.6 249.573 70.8C249.907 70.9867 250.42 71.2 251.113 71.44C251.833 71.68 252.427 71.92 252.893 72.16C253.373 72.3867 253.78 72.7133 254.113 73.14C254.46 73.5533 254.633 74.0733 254.633 74.7C254.633 75.42 254.413 76.04 253.973 76.56C253.547 77.08 252.953 77.48 252.193 77.76C251.447 78.0267 250.593 78.16 249.633 78.16ZM260.606 74.76L257.366 80.56H255.126L257.126 74.76H260.606ZM271.995 66.66L271.495 69.58H276.075L275.615 72.16H271.035L270.475 75.3H275.655L275.175 78H266.575L269.055 63.96H277.655L277.175 66.66H271.995ZM293.636 66.72C294.836 66.72 295.769 67.04 296.436 67.68C297.116 68.3067 297.456 69.1867 297.456 70.32C297.456 70.6667 297.416 71.0533 297.336 71.48L296.176 78H292.776L293.856 71.94C293.882 71.8067 293.896 71.6267 293.896 71.4C293.896 70.84 293.736 70.4133 293.416 70.12C293.109 69.8267 292.676 69.68 292.116 69.68C291.449 69.68 290.889 69.88 290.436 70.28C289.982 70.6667 289.696 71.22 289.576 71.94L288.496 78H285.096L286.176 71.94C286.202 71.8067 286.216 71.6267 286.216 71.4C286.216 70.84 286.056 70.4133 285.736 70.12C285.429 69.8267 284.996 69.68 284.436 69.68C283.769 69.68 283.209 69.88 282.756 70.28C282.302 70.6667 282.016 71.22 281.896 71.94V71.84L280.816 78H277.396L279.356 66.84H282.776L282.536 68.26C282.962 67.78 283.476 67.4067 284.076 67.14C284.689 66.86 285.349 66.72 286.056 66.72C286.909 66.72 287.629 66.9 288.216 67.26C288.816 67.62 289.242 68.14 289.496 68.82C289.989 68.1933 290.602 67.6867 291.336 67.3C292.069 66.9133 292.836 66.72 293.636 66.72ZM303.668 68.42C304.094 67.9 304.628 67.48 305.268 67.16C305.921 66.84 306.641 66.68 307.428 66.68C308.628 66.68 309.594 67.0733 310.328 67.86C311.074 68.6467 311.448 69.7133 311.448 71.06C311.448 71.4733 311.408 71.92 311.328 72.4C311.128 73.5467 310.734 74.56 310.148 75.44C309.561 76.3067 308.854 76.98 308.028 77.46C307.201 77.9267 306.328 78.16 305.408 78.16C304.634 78.16 303.981 78 303.448 77.68C302.914 77.36 302.521 76.9467 302.268 76.44L301.048 83.32H297.628L300.528 66.84H303.948L303.668 68.42ZM307.868 72.4C307.908 72.1733 307.928 71.9667 307.928 71.78C307.928 71.1133 307.734 70.5933 307.348 70.22C306.974 69.8467 306.494 69.66 305.908 69.66C305.228 69.66 304.608 69.9067 304.048 70.4C303.488 70.8933 303.128 71.5667 302.968 72.42C302.928 72.66 302.908 72.88 302.908 73.08C302.908 73.7333 303.094 74.2467 303.468 74.62C303.841 74.9933 304.321 75.18 304.908 75.18C305.588 75.18 306.208 74.9333 306.768 74.44C307.341 73.9333 307.708 73.2533 307.868 72.4ZM316.782 74.16C316.769 74.2267 316.762 74.3133 316.762 74.42C316.762 74.66 316.829 74.8333 316.962 74.94C317.109 75.0467 317.342 75.1 317.662 75.1H318.882L318.362 78H316.622C314.382 78 313.262 77.06 313.262 75.18C313.262 74.9 313.295 74.5467 313.362 74.12L314.162 69.68H312.802L313.302 66.84H314.662L315.142 64.12H318.562L318.082 66.84H320.322L319.822 69.68H317.582L316.782 74.16ZM324.787 66.84L326.147 73.82L329.947 66.84H333.647L323.747 83.3H320.067L323.627 77.62L320.987 66.84H324.787ZM339.984 63.46L337.884 73.04H334.984L336.284 63.46H339.984ZM335.584 78.16C335.05 78.16 334.624 78.02 334.304 77.74C333.997 77.4467 333.844 77.08 333.844 76.64C333.844 76.0267 334.07 75.5067 334.524 75.08C334.99 74.6533 335.564 74.44 336.244 74.44C336.764 74.44 337.177 74.5867 337.484 74.88C337.79 75.16 337.944 75.5267 337.944 75.98C337.944 76.58 337.71 77.0933 337.244 77.52C336.79 77.9467 336.237 78.16 335.584 78.16Z" fill="#2F2F2F"/>
</svg>
