<svg width="310" height="127" viewBox="0 0 310 127" fill="none" xmlns="http://www.w3.org/2000/svg">
<path d="M263.199 13.1851C263.046 13.0316 262.91 12.8522 262.907 12.6362C262.89 11.4358 262.012 10.9209 261.148 10.3363C261.042 10.7513 261.411 11.0851 261.2 11.4617C260.727 11.1708 260.281 10.8343 259.787 10.6032C258.718 10.1043 257.645 10.0195 256.614 10.7415C256.31 10.9539 255.975 11.1208 255.666 11.3261C255.315 11.5599 254.818 11.7304 254.709 12.1239C254.561 12.6469 255.197 12.7058 255.48 12.97C255.786 13.2565 255.807 13.5465 255.68 13.9008C255.589 14.1614 255.448 14.2534 255.218 14.0481C253.473 12.4952 251.608 12.6496 249.683 13.675C249.591 13.1021 249.591 13.1021 250.979 11.899C249.889 11.4947 248.837 11.0985 247.78 10.7156C247.447 10.5951 247.38 10.8165 247.347 11.0905C247.165 12.5568 246.574 13.8303 245.56 14.9156C245.176 15.3279 245.172 15.8875 245.124 16.4131C245.063 17.0994 245.034 17.7893 244.968 18.4747C244.93 18.8629 244.907 19.2771 244.496 19.502C244.474 19.4787 244.451 19.4555 244.428 19.4323C243.712 19.0709 243.571 18.4372 243.438 17.6974C243.232 16.5541 242.416 15.7509 241.505 15.0869C241.101 14.7924 240.609 14.7799 240.145 15.0057C239.84 15.153 239.595 15.1289 239.403 14.8317C239.513 12.8093 239.212 10.8031 239.16 8.78522C239.123 7.28498 239.645 6.08997 240.74 5.12165C244.334 1.94714 248.384 -0.134982 253.323 0.00692055C255.506 0.0693932 257.562 0.692334 259.516 1.63746C260.493 2.10957 261.166 2.87084 261.447 3.94537C261.527 4.25238 261.663 4.546 261.73 4.85569C262.073 6.42286 262.726 7.63483 264.268 8.50409C266.033 9.49919 266.853 11.2698 266.7 13.3698C266.644 14.1382 266.399 14.3158 265.665 14.0811C264.833 13.8152 264.021 13.4858 263.199 13.1851Z" fill="black"/>
<path d="M239.41 21.8739C238.376 21.5249 237.502 21.2304 236.63 20.9368C235.348 20.5075 233.951 21.0733 233.556 22.1809C233.164 23.2831 233.847 24.5165 235.15 24.9779C236.951 25.616 238.764 26.2211 240.572 26.8413C240.798 26.919 241.026 26.9939 241.245 27.0885C241.497 27.1974 241.857 27.2304 241.706 27.6704C241.548 28.1354 241.261 27.8927 241.003 27.8043C238.819 27.0546 236.64 26.2889 234.449 25.5589C231.579 24.6012 228.704 23.6543 225.817 22.7458C225.252 22.5673 225.222 22.3442 225.467 21.9015C225.646 21.5776 225.812 21.2429 225.953 20.9011C226.097 20.5548 225.948 20.2772 225.663 20.0746C225.355 19.856 225.166 20.1327 224.977 20.2871C224.815 20.4174 224.704 20.6092 224.577 20.7779C223.856 21.7195 222.951 22.2728 221.757 22.5512C219.872 22.9894 218.018 23.5811 216.185 24.2041C212.268 25.5356 209.049 24.4736 206.317 21.5097C204.852 19.9203 203.552 18.2103 202.405 16.3807C201.887 15.5543 201.6 14.6493 201.551 13.6774C201.517 12.9983 201.74 12.8385 202.355 13.1C202.848 13.3089 203.266 13.6426 203.686 13.9711C205.281 15.2134 206.917 16.3986 208.608 17.507C209.362 18.0014 210.152 18.1496 211.037 17.8801C213.357 17.175 215.798 14.2326 216.012 11.8193C216.152 10.245 215.609 8.95452 214.353 7.97459C212.669 6.66177 210.81 5.63008 208.943 4.61088C207.895 4.03881 207.886 3.63274 208.906 2.97767C209.508 2.59212 210.189 2.45379 210.876 2.40471C215.231 2.08788 219.102 3.46585 222.61 5.92549C224.164 7.01519 225.005 8.69303 225.598 10.4494C226.605 13.4401 228.695 15.2527 231.61 16.246C233.621 16.9305 235.618 17.6552 237.632 18.3299C238.148 18.503 238.44 18.7618 238.495 19.3214C238.578 20.1791 238.929 20.9573 239.41 21.8739Z" fill="black"/>
<path d="M256.505 28.2971C254.555 28.1552 252.893 28.0142 251.346 27.3002C250.373 26.8513 250.179 26.4193 250.545 25.4001C250.652 25.1065 250.602 24.9236 250.445 24.6799C250.03 24.0373 249.848 23.3144 249.946 22.555C250.004 22.1025 250.252 21.816 250.676 22.2649C252.113 23.7892 254.011 24.0079 255.932 24.0945C256.743 24.131 257.55 24.3247 258.377 24.1435C258.755 24.0605 259.073 24.1998 258.888 24.7317C258.57 25.642 258.362 26.5621 258.675 27.5305C258.771 27.8312 258.609 28.082 258.278 28.0784C257.585 28.0731 256.926 28.4024 256.505 28.2971Z" fill="#FAFAFA"/>
<path d="M252.151 16.1403C251.619 15.8387 251.654 16.1296 251.67 16.309C251.718 16.8222 252.075 17.0649 252.533 17.0703C252.987 17.0756 253.259 16.7659 253.304 16.3135C253.354 15.8039 253.059 15.5111 252.594 15.4228C252.458 15.3969 251.954 15.2764 252.3 15.8003C252.449 16.0243 252.253 16.1823 252.151 16.1403ZM254.675 16.8552C254.715 17.1533 254.581 17.3568 254.33 17.5022C253.622 17.9145 251.534 17.8012 251.009 17.3148C250.796 17.1185 250.593 16.9105 250.531 16.6098C250.298 15.7887 250.681 15.3746 251.441 15.1604C252.046 14.9908 252.646 14.9587 253.25 15.0944C254.452 15.3639 254.632 15.5816 254.695 16.7758L254.712 16.7624C254.693 16.7633 254.674 16.7633 254.656 16.7642C254.662 16.7945 254.668 16.8248 254.675 16.8552Z" fill="#FAFAFA"/>
<path d="M262.488 15.4819C260.985 14.8974 259.495 14.411 257.961 15.2874C257.941 14.4342 258.437 13.9995 259.51 13.8907C261.165 13.7238 262.249 14.2807 262.488 15.4819Z" fill="#0A0909"/>
<path d="M258.593 17.5387C258.182 17.7779 258.169 17.3602 258.009 17.1853C258.236 16.1241 258.511 15.909 259.563 15.976C260.537 16.0367 261.017 16.4767 261.115 17.3977C260.662 18.117 260.144 18.2491 259.17 17.8921C259.295 17.8546 259.427 17.8305 259.546 17.7779C259.871 17.6324 259.909 17.3575 259.856 17.046C259.812 16.7828 259.68 16.6248 259.4 16.5802C258.967 16.5115 259.018 16.7283 259.123 17.0014C259.124 17.0041 258.986 17.0942 258.941 17.0755C258.244 16.8015 258.622 17.3218 258.593 17.5387Z" fill="#FAFAFA"/>
<path d="M254.694 16.7759C254.631 15.5818 254.452 15.364 253.25 15.0945C252.645 14.9588 252.045 14.9909 251.44 15.1605C250.68 15.3747 250.297 15.7897 250.53 16.6099C249.914 16.1244 249.881 15.7781 250.407 15.2872C251.399 14.3626 253.793 14.4439 254.665 15.4506C255.022 15.8638 255.193 16.3234 254.694 16.7759Z" fill="#211C14"/>
<path d="M261.115 17.397C261.018 16.4759 260.538 16.036 259.563 15.9753C258.512 15.9092 258.236 16.1234 258.01 17.1846C257.695 16.3171 257.807 16.0565 258.625 15.7441C259.507 15.4077 260.717 15.6861 261.219 16.3608C261.488 16.7232 261.68 17.1051 261.115 17.397Z" fill="#211C14"/>
<path d="M258.593 17.5382C258.621 17.3213 258.244 16.801 258.94 17.075C258.985 17.0937 259.124 17.0036 259.123 17.0009C259.017 16.7278 258.966 16.511 259.399 16.5797C259.68 16.6243 259.812 16.7823 259.855 17.0455C259.908 17.357 259.871 17.6319 259.545 17.7774C259.426 17.83 259.294 17.8541 259.169 17.8916C258.976 17.7738 258.784 17.656 258.593 17.5382Z" fill="#211C14"/>
<path d="M254.676 16.855C254.669 16.8246 254.662 16.7943 254.656 16.7639C254.675 16.7631 254.694 16.7631 254.712 16.7622L254.657 16.7943L254.676 16.855Z" fill="#211C14"/>
<path d="M244.495 19.5023C244.453 19.5468 244.377 19.6321 244.374 19.6303C244.255 19.5307 244.351 19.4836 244.428 19.4329C244.45 19.456 244.473 19.4792 244.495 19.5023Z" fill="#040404"/>
<path d="M183.85 16.4917C183.583 16.4355 183.33 16.3614 183.251 16.0499C183.59 16.008 183.843 16.0829 183.85 16.4917Z" fill="black"/>
<path d="M184.224 17.1045C183.894 17.1036 183.908 16.868 183.908 16.6404C184.264 16.6243 184.266 16.8492 184.224 17.1045Z" fill="black"/>
<path d="M216.871 86.468C216.871 82.8624 216.401 80.6509 215.246 78.6401C214.424 77.2113 213.317 76.1153 211.668 75.6745C208.21 74.7481 205.257 76.243 203.912 79.6361C202.164 84.0449 202.311 88.451 204.008 92.8366C204.338 93.6871 204.826 94.443 205.535 95.0392C208.901 97.871 213.816 96.7393 215.685 92.6965C216.642 90.626 216.918 88.4287 216.871 86.468ZM216.839 101.855C216.381 101.976 216.174 102.218 215.987 102.475C212.994 106.567 208.98 108.477 203.901 108.303C199.381 108.148 195.236 107.053 191.812 103.942C188.984 101.373 187.498 98.0834 186.755 94.3993C185.694 89.1355 185.436 83.8557 186.485 78.5625C187.461 73.6289 189.729 69.4067 193.691 66.2348C199.82 61.3334 208.121 61.8448 213.783 67.3763C214.578 68.1528 215.442 68.8551 216.219 69.5405C216.397 68.6177 216.61 67.4807 216.841 66.3473C217.23 64.4347 218.082 63.6877 220.034 63.5235C223.435 63.2371 226.833 63.1683 230.217 63.6788C231.784 63.9144 232.597 64.8033 232.807 66.3687C233.012 67.8993 233.099 69.4406 233.101 70.9801C233.113 82.6348 233.12 94.2895 233.097 105.943C233.092 108.495 232.926 111.045 232.268 113.529C230.977 118.409 227.83 121.637 223.261 123.588C219.103 125.363 214.747 126.217 210.247 126.383C205.061 126.574 200.083 125.634 195.374 123.454C191.518 121.669 188.888 118.731 187.534 114.682C187.475 114.507 187.422 114.329 187.374 114.149C186.958 112.536 187.542 111.73 189.197 111.702C190.367 111.683 191.536 111.746 192.706 111.743C195.286 111.735 197.866 111.721 200.447 111.691C201.75 111.676 202.818 112.117 203.674 113.123C204.796 114.441 206.337 114.922 207.985 115.087C209.447 115.232 210.904 115.151 212.348 114.844C214.584 114.368 215.916 112.965 216.502 110.809C216.739 109.936 216.858 109.046 216.848 108.131C216.822 106.063 216.839 103.996 216.839 101.855Z" fill="black"/>
<path d="M87.0682 91.9391C87.0682 91.6205 87.0861 91.2992 87.0655 90.9824C86.9879 89.7588 86.5774 89.4286 85.3725 89.6285C82.7728 90.0605 80.2203 90.6727 77.7527 91.6178C76.0159 92.2827 75.0985 93.6 75.1502 95.3956C75.1966 97.0413 76.2944 98.4193 77.9874 98.9557C82.6157 100.425 87.3458 96.7763 87.0682 91.9391ZM87.3833 103.776C87.02 103.852 86.8754 104.094 86.7112 104.284C83.335 108.189 79.0182 109.788 73.9302 109.539C71.0922 109.4 68.322 108.977 65.7856 107.61C62.2675 105.713 60.313 102.72 59.8989 98.779C59.5544 95.4938 59.6624 92.2363 61.3313 89.2412C63.3938 85.5383 66.7566 83.6802 70.7218 82.7101C73.3126 82.0765 75.982 81.9667 78.6121 81.5954C80.5345 81.3241 82.4568 81.0537 84.3132 80.4638C86.1249 79.8872 86.8665 78.9823 86.8085 77.5088C86.7541 76.1433 85.5921 74.8859 83.9642 74.5949C81.4564 74.1487 79.2672 74.7386 77.6357 76.8225C76.8593 77.814 75.8669 78.2817 74.6022 78.2754C70.9824 78.2567 67.3617 78.2719 63.7418 78.2683C61.9507 78.2665 61.4009 77.6472 61.8293 75.8872C62.9922 71.1098 65.591 67.3499 70.1712 65.3481C78.9048 61.5319 87.6019 61.5712 96.1134 66.1138C100.982 68.7118 103.33 72.9028 103.376 78.3317C103.456 87.4036 103.414 96.4773 103.418 105.55C103.418 105.92 103.392 106.295 103.33 106.659C103.062 108.237 102.408 108.923 100.828 108.865C97.4253 108.738 94.0214 109.015 90.622 108.765C89.1245 108.654 88.3525 108.004 88 106.545C87.7831 105.642 87.5957 104.733 87.3833 103.776Z" fill="black"/>
<path d="M166.189 91.7515C166.189 91.3526 166.217 90.9519 166.183 90.5547C166.117 89.7916 165.78 89.5096 165.012 89.6373C163.23 89.9327 161.446 90.2254 159.679 90.5967C158.294 90.8885 156.967 91.3811 155.856 92.3039C153.664 94.1264 154.162 97.7292 156.751 98.752C158.504 99.4437 160.27 99.4803 162.03 98.7404C164.752 97.5981 166.201 95.175 166.189 91.7515ZM182.521 92.0674C182.473 95.9461 182.586 100.572 182.657 105.197C182.702 108.095 181.953 108.934 179.095 108.858C176.143 108.781 173.196 108.724 170.246 108.898C170.008 108.913 169.767 108.9 169.528 108.882C167.838 108.761 167.099 107.992 167.025 106.3C166.995 105.638 167.146 104.973 166.999 104.314C166.943 104.062 166.939 103.724 166.67 103.643C166.401 103.562 166.304 103.896 166.16 104.069C164.043 106.631 161.393 108.369 158.15 109.116C153.374 110.217 148.784 109.525 144.464 107.304C141.604 105.833 140.102 103.265 139.469 100.177C138.783 96.8314 138.818 93.5079 140.129 90.3075C141.825 86.1718 145.21 84.0629 149.319 82.8777C151.456 82.2601 153.676 82.2173 155.86 81.9299C158.232 81.6184 160.581 81.1686 162.932 80.7313C163.344 80.6546 163.749 80.5029 164.142 80.3476C165.153 79.946 165.841 79.2757 165.907 78.1182C165.982 76.7786 165.667 75.58 164.365 74.9669C162.364 74.028 160.301 74.0476 158.26 74.8794C157.566 75.1614 157.122 75.7353 156.785 76.3868C156.137 77.6425 155.1 78.2637 153.697 78.2672C150.187 78.2762 146.676 78.194 143.164 78.3065C141.373 78.3636 140.698 77.5354 141.162 75.6826C142.304 71.1132 144.701 67.4496 149.159 65.4648C154.198 63.222 159.456 62.127 164.987 62.7624C169.358 63.2649 173.425 64.683 177.067 67.1632C180.717 69.6496 182.483 73.198 182.514 77.5907C182.546 82.1664 182.521 86.743 182.521 92.0674Z" fill="black"/>
<path d="M262.486 15.4817C262.247 14.2805 261.164 13.7236 259.508 13.8905C258.435 13.9993 257.939 14.434 257.959 15.2872C259.493 14.4108 260.983 14.8972 262.486 15.4817ZM256.504 28.2967C256.924 28.402 257.584 28.0718 258.277 28.078C258.608 28.0816 258.77 27.8299 258.674 27.53C258.36 26.5617 258.569 25.6416 258.887 24.7313C259.072 24.1993 258.754 24.0601 258.376 24.1431C257.549 24.3243 256.741 24.1306 255.931 24.094C254.01 24.0075 252.112 23.7888 250.674 22.2645C250.251 21.8156 250.002 22.102 249.944 22.5545C249.847 23.314 250.028 24.036 250.443 24.6795C250.6 24.9231 250.65 25.1061 250.544 25.3997C250.177 26.4189 250.372 26.8509 251.345 27.2998C252.891 28.0137 254.554 28.1548 256.504 28.2967ZM239.41 21.8745C238.928 20.9579 238.577 20.1797 238.493 19.322C238.44 18.7615 238.147 18.5027 237.63 18.3296C235.617 17.6558 233.619 16.9311 231.609 16.2457C228.694 15.2533 226.605 13.4407 225.597 10.4491C225.004 8.69363 224.163 7.0158 222.608 5.9252C219.102 3.46557 215.23 2.08849 210.875 2.40442C210.188 2.4544 209.507 2.59274 208.905 2.97828C207.884 3.63335 207.895 4.03853 208.943 4.6106C210.809 5.62979 212.668 6.66149 214.35 7.97431C215.609 8.95513 216.151 10.2456 216.011 11.8191C215.797 14.2332 213.355 17.1747 211.036 17.8807C210.15 18.1493 209.361 18.0012 208.607 17.5076C206.915 16.3992 205.279 15.214 203.684 13.9708C203.265 13.6433 202.847 13.3095 202.355 13.1006C201.74 12.8391 201.517 12.9989 201.55 13.6781C201.599 14.65 201.886 15.5549 202.405 16.3813C203.551 18.21 204.851 19.9209 206.316 21.5103C209.048 24.4742 212.266 25.5363 216.183 24.2038C218.017 23.5809 219.871 22.99 221.755 22.551C222.949 22.2734 223.855 21.7192 224.575 20.7785C224.704 20.6098 224.815 20.418 224.976 20.2877C225.165 20.1324 225.354 19.8557 225.661 20.0744C225.947 20.2778 226.096 20.5554 225.95 20.9017C225.81 21.2435 225.645 21.5782 225.466 21.9021C225.22 22.3439 225.25 22.5679 225.816 22.7464C228.703 23.654 231.577 24.6018 234.449 25.5595C236.639 26.2895 238.817 27.0552 241.002 27.804C241.26 27.8933 241.546 28.1351 241.705 27.671C241.856 27.2311 241.495 27.1971 241.243 27.0883C241.024 26.9937 240.797 26.9187 240.571 26.8419C238.764 26.2208 236.95 25.6157 235.148 24.9785C233.845 24.5171 233.163 23.2828 233.555 22.1806C233.95 21.073 235.347 20.5072 236.628 20.9374C237.502 21.2301 238.375 21.5255 239.41 21.8745ZM259.166 17.8914C260.142 18.2484 260.66 18.1163 261.113 17.397C261.678 17.1042 261.486 16.7232 261.216 16.3599C260.715 15.6852 259.505 15.4077 258.623 15.7441C257.804 16.0565 257.693 16.3171 258.005 17.1837C258.167 17.3595 258.18 17.7763 258.592 17.538C258.783 17.6558 258.974 17.7736 259.166 17.8914ZM254.71 16.7624L254.693 16.7749C255.191 16.3224 255.022 15.8628 254.664 15.4496C253.793 14.4429 251.397 14.3617 250.407 15.2863C249.88 15.7771 249.912 16.1234 250.529 16.6089C250.591 16.9097 250.794 17.1176 251.007 17.3149C251.532 17.8004 253.621 17.9137 254.328 17.5023C254.579 17.3568 254.713 17.1524 254.674 16.8543L254.655 16.7937L254.71 16.7624ZM229.662 58.2005C228.987 58.2924 228.559 58.8065 228.036 59.1581C226.274 60.3433 224.568 61.6178 222.625 62.5138C219.703 63.8614 215.698 61.5044 215.501 58.313C215.346 55.8176 216.346 53.8337 217.7 51.9292C218.929 50.2005 220.007 48.3566 221.563 46.8698C222.076 46.3798 222.08 45.7328 221.814 45.0911C221.733 44.8947 221.63 44.7073 221.548 44.511C221.088 43.4213 221.178 43.1402 222.237 42.6511C222.961 42.3173 223.552 41.8934 223.914 41.1437C224.158 40.6412 224.649 40.4226 225.197 40.6653C226.079 41.0589 226.72 40.7742 227.293 40.079C228.48 38.6377 229.97 37.5069 231.305 36.2182C232.828 34.7501 234.718 34.0914 236.672 33.5783C237.984 33.2338 238.887 32.5609 239.171 31.2177C239.29 30.6519 239.733 30.5644 240.126 30.3716C240.394 30.2404 240.896 30.3011 240.881 29.9557C240.865 29.6354 240.371 29.6496 240.082 29.5532C237.158 28.5805 234.228 27.6291 231.305 26.659C229.692 26.1226 228.064 25.6219 226.485 24.9972C224.24 24.1092 222.077 24.3252 219.9 25.2087C217.9 26.0209 215.836 26.6429 213.676 26.7946C211.119 26.974 208.782 26.2609 206.945 24.4644C204.603 22.1752 202.503 19.6683 201.11 16.6509C200.667 15.6888 200.462 14.691 200.532 13.6334C200.61 12.4786 201.408 11.9868 202.469 12.4509C203.183 12.7642 203.81 13.2184 204.402 13.7093C205.775 14.849 207.284 15.7986 208.725 16.8418C209.8 17.6201 210.59 17.5996 211.736 16.8561C212.978 16.0493 214.149 15.1203 214.738 13.7387C215.887 11.0426 215.626 9.60306 213.355 8.00733C211.808 6.91941 210.147 6.02338 208.503 5.09611C208.042 4.8364 207.446 4.61328 207.448 4.01086C207.45 3.33884 207.903 2.85334 208.479 2.49813C209.297 1.99211 210.215 1.82075 211.142 1.77077C215.367 1.54319 219.17 2.8578 222.628 5.16571C224.48 6.40267 225.497 8.33843 226.246 10.3982C227.14 12.8579 228.635 14.6928 231.285 15.3952C232.001 15.5853 232.681 15.9092 233.381 16.1582C234.781 16.6571 236.188 17.1426 237.589 17.6424C238.09 17.8218 238.38 17.7843 238.425 17.1364C238.468 16.5232 238.72 15.9476 239.138 15.4782C239.311 15.2827 239.363 15.0667 239.403 14.8311C239.595 15.1283 239.84 15.1524 240.145 15.0052C240.609 14.7794 241.101 14.7927 241.505 15.0873C242.416 15.7513 243.232 16.5545 243.437 17.6968C243.571 18.4376 243.711 19.0703 244.428 19.4318C244.351 19.4835 244.255 19.5309 244.375 19.6299C244.377 19.6317 244.453 19.546 244.496 19.5014C244.906 19.2765 244.93 18.8624 244.968 18.4742C245.035 17.7888 245.063 17.0989 245.124 16.4126C245.172 15.8869 245.176 15.3273 245.56 14.915C246.574 13.8298 247.165 12.5571 247.346 11.0899C247.379 10.8159 247.445 10.5946 247.779 10.716C248.837 11.0979 249.889 11.4942 250.977 11.8985C249.591 13.1015 249.591 13.1015 249.684 13.6754C251.608 12.6499 253.472 12.4946 255.216 14.0475C255.448 14.2528 255.588 14.1609 255.68 13.9012C255.807 13.5469 255.786 13.2559 255.479 12.9694C255.197 12.7053 254.561 12.6464 254.708 12.1234C254.818 11.7298 255.314 11.5593 255.665 11.3255C255.975 11.1202 256.31 10.9534 256.614 10.741C257.645 10.0189 258.718 10.1046 259.787 10.6035C260.282 10.8338 260.728 11.1702 261.2 11.4621C261.411 11.0845 261.042 10.7517 261.148 10.3358C262.011 10.9203 262.89 11.4353 262.907 12.6366C262.91 12.8516 263.046 13.031 263.199 13.1845C263.799 15.5326 262.616 17.596 262.143 19.7718C261.762 21.5148 261.57 23.2747 261.575 25.0597C261.575 25.8165 261.847 26.2583 262.616 26.5198C267.267 28.1039 271.904 29.7353 276.549 31.3417C276.768 31.4185 277.015 31.4158 277.249 31.4506C277.373 32.0762 277.165 32.1628 276.583 31.9575C273.529 30.8812 270.462 29.8397 267.399 28.7884C265.527 28.1458 263.655 27.5086 261.701 26.841C261.783 27.5443 261.922 28.1485 261.905 28.7482C261.888 29.3301 262.161 29.53 262.642 29.6853C265.271 30.5341 267.896 31.3899 270.515 32.269C273.258 33.1909 276 34.1209 278.726 35.091C279.755 35.4569 280.255 36.4359 280.061 37.4418C279.867 38.4431 279.025 39.1294 277.946 39.1553C277.433 39.1669 276.955 39.0071 276.474 38.8456C271.67 37.2276 266.863 35.6167 262.059 33.9995C261.454 33.7951 260.873 33.6666 260.376 34.2458C260.696 34.7081 261.237 34.6287 261.671 34.7751C269.365 37.373 277.124 39.7827 284.784 42.486C285.287 42.6636 285.689 42.7591 285.963 42.1486C286.118 41.8041 286.485 41.7738 286.799 41.8577C287.238 41.9728 287.019 42.3459 286.984 42.594C286.871 43.3936 286.818 44.1718 287.206 44.9269C287.642 45.7765 288.079 46.6279 288.467 47.4998C289.563 49.9631 291.281 51.7783 293.8 52.8189C294.979 53.3062 296.156 53.8016 297.401 54.0818C298.928 54.4263 300.463 54.8145 302.039 54.3379C302.336 54.2487 302.72 54.2165 302.77 53.8283C302.819 53.4356 302.406 53.4187 302.177 53.2857C300.61 52.3843 299.026 51.5142 297.584 50.4129C296.507 49.5891 296.021 48.5253 296.087 47.1625C296.204 44.7573 298.47 41.9567 300.812 41.3865C301.442 41.233 302.006 41.3615 302.559 41.7077C304.477 42.909 306.24 44.3271 308.095 45.615C308.383 45.8131 308.668 46.1701 309.086 45.8809C309.465 45.6176 309.482 45.2044 309.441 44.801C309.343 43.8372 309.011 42.9483 308.561 42.0933C307.419 39.9291 305.827 38.1165 304.155 36.3583C302.762 34.8911 301.085 34.1486 299.059 34.1093C296.964 34.0682 295.027 34.6965 293.088 35.365C291.715 35.8389 290.315 36.0683 288.854 35.8157C288.283 35.7166 287.932 35.6176 288.383 34.9705C288.507 34.7911 288.667 34.5439 288.48 34.228C288.295 34.4761 288.133 34.6831 287.979 34.8964C287.015 36.2325 285.938 36.3824 284.656 35.3802C284.229 35.0464 284.121 34.6885 284.386 34.2075C284.8 33.4605 285.299 32.7759 285.831 32.1084C286.364 31.4372 286.954 31.1392 287.841 31.4578C288.715 31.7701 289.035 32.3583 289.018 33.2168C289.01 33.7211 289.037 34.2307 288.971 34.7278C288.897 35.2793 289.076 35.4292 289.581 35.2507C290.636 35.4899 291.63 35.1856 292.605 34.8652C294.778 34.1512 296.933 33.423 299.277 33.5203C301.225 33.6024 302.901 34.2342 304.287 35.6176C306.462 37.7898 308.43 40.104 309.617 42.9947C309.907 43.7042 310.02 44.4164 309.996 45.1696C309.955 46.4717 309.049 46.9929 307.948 46.2772C306.947 45.6257 306.013 44.8733 305.042 44.1781C304.155 43.5453 303.249 42.9411 302.366 42.303C301.893 41.9612 301.375 41.8978 300.847 42.0353C298.888 42.5458 296.874 45.1357 296.695 47.1634C296.575 48.5333 297.295 49.3597 298.252 50.1023C299.707 51.2312 301.309 52.1389 302.938 52.9689C304.11 53.565 303.873 54.6012 303.083 55.1581C301.808 56.0568 300.323 56.1068 298.873 56.0015C296.387 55.8212 294.066 55.0144 291.807 53.9479C289.209 52.7199 287.792 50.5842 286.812 48.0228C286.316 46.7288 285.736 45.4659 284.452 44.7207C284.4 44.5315 284.32 44.3432 284.086 44.3878C283.81 44.4396 283.887 44.7279 283.815 44.9055C283.608 45.4186 283.525 46.0032 283.233 46.4548C282.828 47.0795 282.159 46.619 281.608 46.6636C281.425 46.6788 281.216 46.6404 281.176 46.8983C281.135 47.183 281.481 47.0545 281.544 47.2312C281.034 47.3017 280.897 47.7247 280.716 48.1085C279.207 51.3125 277.47 54.3808 275.298 57.1911C274.5 58.2255 273.6 59.1617 272.653 60.0577C271.475 61.1689 270.056 61.1822 268.613 60.9011C267.399 60.6637 266.315 60.0908 265.36 59.2929C265.135 59.1055 264.91 58.9172 264.598 58.8949C264.567 58.6762 264.65 58.4852 264.718 58.2817C265.402 56.2612 266.075 54.2371 266.75 52.2147C267.523 51.7569 268.205 51.1393 268.534 50.3415C269.106 48.9528 269.812 47.6614 270.684 46.4494C270.933 46.1022 270.867 45.8854 270.421 45.7747C269.945 45.6569 269.749 45.2856 269.719 44.8216C269.683 44.2995 269.615 43.7702 269.016 43.6158C268.434 43.465 268.171 43.9291 267.898 44.3289C267.859 44.3869 267.778 44.4164 267.731 44.4485C267.143 43.183 266.085 42.3003 265.212 41.282C264.742 40.735 264.423 39.9844 263.613 39.7845L261.872 37.3739C262.227 37.3329 262.382 37.6238 262.58 37.8211C264.089 39.3186 265.62 40.7939 266.931 42.4762C267.307 42.9572 267.711 43.3383 268.48 43.1616C269.726 42.8742 270.062 43.2026 270.182 44.5458C270.244 45.2482 270.952 45.7042 271.432 45.2508C272.168 44.5583 272.98 43.8693 273.257 42.8126C273.855 42.6939 273.724 42.419 273.448 42.0567C273.166 41.6845 272.599 41.4373 272.794 40.8242C272.99 40.2129 272.568 40.4119 272.287 40.4137C272.16 40.2289 271.967 40.1495 271.763 40.0808C269.488 39.3159 267.225 38.5074 264.931 37.797C263.755 37.4328 262.65 36.809 261.383 36.7519C261.13 36.6805 260.901 36.6894 260.732 36.9259C259.679 36.6314 259.298 35.4159 258.222 35.0321C258.19 35.5765 258.401 35.9237 258.728 36.2191C259.007 36.469 259.045 36.6796 258.683 36.9018C257.62 37.5587 257.2 38.6609 256.758 39.7434C256.738 39.7764 256.717 39.8086 256.699 39.8407C256.732 39.8229 256.766 39.8041 256.799 39.7854C257.447 39.4926 257.92 38.9545 258.478 38.5395C258.723 38.3583 258.864 38.2923 259.063 38.4842C259.302 38.7153 259.627 38.892 259.654 39.2829C259.383 39.1821 258.951 38.9232 258.87 39.0062C258.392 39.498 257.713 39.6104 257.181 39.996C256.631 40.394 256.309 40.8171 256.464 41.5105L256.443 41.5275C255.19 40.3699 253.965 39.1696 252.204 38.7974C252.086 38.7724 252.005 38.6957 252.049 38.5814C252.109 38.4226 252.256 38.3012 252.419 38.3521C252.717 38.4467 253.005 38.5788 253.286 38.7162C253.827 38.9804 254.231 39.4855 254.852 39.6069C254.882 39.6274 254.91 39.6479 254.938 39.6685C254.915 39.6426 254.892 39.6158 254.871 39.5899C254.347 38.4868 253.785 37.4293 252.442 37.124C250.915 36.7778 249.397 36.3645 247.976 35.7193C245.307 34.5073 242.488 33.522 240.469 31.2177C240.192 30.9 239.96 31.0017 239.781 31.3141C239.466 31.8674 239.123 32.4181 239.06 33.066C239.028 33.39 238.923 33.4712 238.593 33.5408C237.123 33.8514 235.768 34.5011 234.304 35.0009C234.661 35.29 234.946 35.5203 235.229 35.7505L235.19 35.7898C233.735 34.8697 232.718 35.7273 231.713 36.643C231.32 37.0009 230.914 37.3436 230.529 37.7095C228.872 39.2865 227.198 40.8483 225.781 42.7073C225.622 42.4217 225.353 42.2022 225.668 41.8532C225.916 41.5783 225.778 41.3204 225.475 41.2428C225.058 41.1357 224.543 41.0964 224.352 41.5694C224.006 42.4244 223.327 42.8269 222.539 43.1241C221.93 43.3543 221.823 43.7461 222.057 44.3227C222.491 45.3963 223.117 46.3566 223.904 47.183C224.4 47.7042 224.649 48.5065 225.473 48.6895C225.444 49.0144 225.56 49.2803 225.796 49.4999C225.862 50.1273 225.929 50.7547 225.995 51.383C226.152 50.6342 226.082 49.9006 225.983 49.1679C226.015 49.0126 226.073 48.8582 226.074 48.7029C226.083 47.914 226.36 47.4758 227.261 47.5266C227.832 47.5588 228.436 47.2589 228.985 47.3499C229.88 47.499 230.167 46.8716 230.549 46.3602C231.436 45.1705 232.269 43.9407 233.16 42.7537C233.536 42.2486 233.939 41.7354 234.615 41.3713V42.6912C234.972 42.1932 234.839 41.6819 235.006 41.2347C235.156 40.834 235.373 40.6903 235.781 40.7564C238.121 41.1348 240.254 42.0032 242.155 43.4266C242.819 43.9246 243.168 44.561 243.07 45.4124C243.015 45.8747 242.906 46.3566 242.499 46.5833C242.093 46.8082 241.89 46.2754 241.565 46.1424C241.492 46.1121 241.427 46.063 241.358 46.0228C241.307 45.9835 241.254 45.9452 241.203 45.9059C241.124 45.8782 241.046 45.8497 240.967 45.8211L240.889 45.7051C240.86 45.7292 240.831 45.7542 240.803 45.7783C240.845 45.8042 240.887 45.8283 240.929 45.8532C240.93 45.9684 241.01 45.9943 241.102 46.0059C241.154 46.0612 241.205 46.1156 241.255 46.171C241.417 46.3414 241.552 46.5512 241.744 46.6752C242.664 47.2705 242.738 48.0889 242.403 49.0251C242.289 49.3473 242.187 49.6766 242.037 49.9818C241.529 51.0153 241.445 51.034 240.51 50.428C240.349 50.1933 240.131 50.0389 239.858 49.9613C239.79 49.8194 239.686 49.7953 239.553 49.8685C239.613 49.939 239.674 50.0095 239.736 50.08C239.936 50.2406 240.139 50.4004 240.341 50.5619C241.033 51.134 241.459 51.7391 241.182 52.7547C240.607 54.8529 239.215 55.5535 236.764 55.0117C236.793 54.8323 237.126 54.8797 237.05 54.5905C236.139 54.8315 235.207 54.7538 234.28 54.7752C234.113 54.7788 233.86 54.6556 233.789 54.8895C233.567 55.6186 232.917 56.0024 232.48 56.5539C231.2 58.1666 231.181 58.1523 229.357 57.2518C229.259 57.4232 229.386 57.5579 229.438 57.6998C229.501 57.8712 229.587 58.0336 229.662 58.2005Z" fill="#F4CF91"/>
<path d="M240.96 39.1834C240.959 37.718 239.978 36.5819 238.749 36.4444C238.173 36.3802 237.678 36.5614 237.442 37.1325C237.067 38.0393 236.702 38.9478 236.14 39.7609C235.919 40.0795 236.039 40.2883 236.374 40.3151C237.505 40.4052 238.5 40.946 239.568 41.2415C240.05 41.3753 240.35 41.2638 240.522 40.8175C240.75 40.224 240.935 39.6181 240.96 39.1834ZM255.316 64.8168C255.324 61.7066 253.11 59.4692 250.014 59.4585C246.91 59.4469 244.64 61.7405 244.658 64.8722C244.675 67.9664 246.92 70.227 249.986 70.2341C253.101 70.2421 255.308 67.9985 255.316 64.8168ZM245.078 88.6894C245.078 93.5284 245.088 98.3673 245.065 103.206C245.063 103.781 245.175 103.974 245.796 103.966C248.669 103.928 251.541 103.935 254.414 103.961C254.959 103.966 255.134 103.835 255.133 103.264C255.116 93.5864 255.113 83.9085 255.136 74.2306C255.138 73.563 254.903 73.4541 254.312 73.4604C251.493 73.4863 248.674 73.4925 245.854 73.4568C245.218 73.4488 245.061 73.63 245.065 74.252C245.09 79.0642 245.078 83.8773 245.078 88.6894ZM266.75 52.2152C266.074 54.2375 265.401 56.2617 264.718 58.2822C264.649 58.4848 264.566 58.6767 264.597 58.8944C263.541 61.3835 262.621 63.9431 261.386 66.3394C260.392 68.2644 260.527 70.3243 260.216 72.3153C259.541 76.6197 259.196 80.9696 258.833 85.315C258.476 89.606 258.968 93.8024 259.883 97.9755C260.077 98.8582 260.261 99.7417 260.318 100.647C260.342 101.013 260.396 101.365 260.934 101.169C261.363 101.012 261.548 101.349 261.609 101.648C261.91 103.15 262.82 103.524 264.239 103.268C264.989 103.133 265.776 103.307 266.531 103.472C267.921 103.776 268.708 104.604 268.914 106.013C268.986 106.511 269.039 107.018 269.03 107.52C269.02 108.045 269.183 108.398 269.624 108.726C270.406 109.31 270.055 110.206 270.006 110.95C269.965 111.573 269.3 111.453 268.838 111.475C262.774 111.77 256.709 111.445 250.647 111.491C247.858 111.512 245.07 111.775 242.276 111.62C240.097 111.497 237.928 111.302 235.773 110.957C235.114 110.852 234.542 110.631 234.376 109.867C234.198 109.049 234.282 108.298 235.013 107.804C235.554 107.438 235.613 107.092 235.293 106.548C235.068 106.165 234.93 105.722 234.807 105.291C234.526 104.293 234.745 103.711 235.666 103.241C236.37 102.881 236.691 102.357 236.882 101.597C238.748 94.2174 239.191 86.6421 240.012 79.1186C240.347 76.0539 240.781 72.9999 241.088 69.9325C241.602 64.782 239.947 60.3608 236.434 56.6017C236.179 56.3295 235.921 56.06 235.666 55.7887C234.946 55.0229 234.774 55.0167 233.967 55.7306C233.346 56.2795 232.829 56.9212 232.342 57.5879C231.48 58.765 231.483 58.7641 230.13 58.2983C229.98 58.2474 229.819 58.2322 229.662 58.201C229.587 58.0341 229.5 57.8708 229.437 57.7003C229.386 57.5575 229.258 57.4228 229.356 57.2523C231.18 58.1519 231.199 58.1671 232.479 56.5535C232.916 56.0028 233.566 55.6191 233.788 54.8899C233.86 54.6561 234.112 54.7793 234.279 54.7757C235.206 54.7543 236.138 54.8319 237.049 54.591C237.125 54.8792 236.792 54.8328 236.763 55.0122C239.214 55.5539 240.607 54.8534 241.181 52.7552C241.46 51.7395 241.032 51.1344 240.34 50.5624C240.396 50.5169 240.453 50.4722 240.509 50.4285C241.445 51.0345 241.529 51.0157 242.036 49.9823C242.186 49.677 242.288 49.3477 242.402 49.0255C242.737 48.0893 242.663 47.271 241.743 46.6757C241.551 46.5516 241.416 46.3419 241.255 46.1714C241.289 46.1215 241.323 46.0724 241.357 46.0233C241.426 46.0635 241.491 46.1125 241.564 46.1429C241.889 46.2759 242.094 46.8078 242.498 46.5838C242.906 46.3571 243.015 45.8751 243.069 45.4128C243.169 44.5614 242.818 43.9242 242.154 43.4271C240.253 42.0036 238.12 41.1353 235.78 40.7568C235.372 40.6908 235.156 40.8345 235.006 41.2352C234.84 41.6823 234.972 42.1937 234.616 42.6917V41.3718C233.938 41.7359 233.537 42.249 233.159 42.7533C232.268 43.9412 231.435 45.171 230.549 46.3606C230.167 46.872 229.879 47.4994 228.984 47.3504C228.435 47.2594 227.831 47.5592 227.26 47.5271C226.361 47.4762 226.082 47.9144 226.073 48.7034C226.072 48.8587 226.014 49.013 225.982 49.1683C225.919 49.279 225.857 49.3897 225.795 49.5003C225.559 49.2808 225.443 49.0148 225.472 48.69C225.522 48.5704 225.586 48.4535 225.621 48.3285C225.938 47.1817 226.018 47.1183 227.192 47.105C227.909 47.0969 228.616 47.0246 229.3 46.7971C229.451 46.822 229.581 46.7997 229.646 46.6373C229.985 46.6462 230.057 46.3598 230.201 46.1456C230.959 45.0237 231.692 43.8849 232.492 42.7935C233.084 41.9849 233.652 41.1361 234.563 40.6176C235.797 39.9153 236.426 38.7658 236.792 37.4565C237.018 36.6551 237.734 36.0143 238.519 36.0125C240.291 36.0071 241.647 37.6252 241.357 39.3869C241.267 39.9429 241.108 40.4677 240.823 40.955C240.495 41.5145 240.674 41.909 241.229 42.1803C241.419 42.2731 241.612 42.3633 241.788 42.4802C243.879 43.8644 244.056 44.706 243.081 46.6909C242.989 46.8765 242.821 47.0514 242.902 47.2808C243.359 48.5766 242.875 49.6512 242.154 50.6971C241.729 51.312 241.537 52.0144 241.635 52.815C241.757 52.7712 241.835 52.7578 241.896 52.7186C241.984 52.6615 242.067 52.5909 242.139 52.5142C243.355 51.2255 244.363 49.7922 244.882 48.0876C245.377 46.4579 245.873 44.8809 245.189 43.0799C244.145 40.3311 242.861 37.7582 241.016 35.469C241.111 35.4636 241.205 35.4583 241.299 35.452C242.844 36.6827 244.313 38.0089 245.937 39.1397C246.061 39.428 246.148 39.751 246.483 39.8751C246.966 40.0554 247.215 40.4472 247.436 40.872C247.724 41.7457 248.053 42.6087 248.286 43.4967C248.408 43.9608 248.633 44.0732 249.063 44.0679C251.627 44.0393 254.192 44.0295 256.756 44.0126C256.822 44.0099 256.888 44.0081 256.954 44.0054C258.568 44.0242 260.183 44.0304 261.797 44.0697C262.3 44.0813 262.518 43.9046 262.346 43.4226C261.909 42.1893 261.593 40.9068 260.931 39.76C260.689 39.2423 260.829 38.6845 260.762 38.1482L260.731 36.9264C260.901 36.6899 261.131 36.681 261.382 36.7523C261.431 36.9496 261.528 37.1129 261.711 37.2138C261.767 37.2691 261.824 37.3244 261.88 37.3806L261.872 37.3744L263.613 39.7849C263.765 40.1205 263.914 40.4588 264.071 40.7925C265.291 43.4012 266.533 45.9983 266.906 48.9086C267.049 50.0296 267.073 51.1255 266.75 52.2152Z" fill="black"/>
<path d="M43.9893 74.8624C47.6083 74.8624 51.2272 74.8383 54.8462 74.874C56.4143 74.8883 56.7757 75.305 56.7757 76.8436C56.7748 80.2725 56.9524 83.7103 56.45 87.1186C55.4004 94.2325 52.6784 100.437 46.6177 104.76C43.1709 107.219 39.253 108.498 35.1182 109.154C28.7549 110.165 22.5514 109.561 16.596 107.046C9.90516 104.219 5.45175 99.1562 2.49055 92.6599C1.70875 90.9455 1.05368 89.1784 0.635115 87.3364C0.146936 85.1846 0.803789 84.1913 2.97516 83.9129C3.99971 83.7799 5.04479 83.7799 6.08005 83.7754C7.96494 83.7674 9.85697 83.563 11.7338 83.8932C15.0699 84.4787 17.5661 86.36 19.4902 89.049C21.1538 91.3766 23.1494 93.282 25.9089 94.1968C30.5782 95.7443 34.6488 94.535 38.2106 91.3248C39.037 90.5805 39.7385 89.6987 40.4882 88.8714C40.8372 88.4859 41.1094 88.0762 40.838 87.5095C40.5801 86.9705 40.0973 86.9687 39.6189 86.9446C37.3637 86.8321 35.0959 86.9223 32.8567 86.5635C30.9834 86.2636 30.1383 85.4595 29.9892 83.6041C29.8072 81.3247 29.817 79.0329 30.2382 76.7687C30.4738 75.5005 31.0557 74.9927 32.3337 74.8775C32.7835 74.8374 33.236 74.8124 33.6876 74.8124C37.1218 74.807 40.5551 74.8088 43.9893 74.8088V74.8624Z" fill="black"/>
<path d="M183.357 51.4889C175.319 51.4889 167.28 51.4791 159.242 51.5058C158.493 51.5076 158.255 51.347 158.257 50.5527C158.285 39.2184 158.281 27.8849 158.267 16.5506C158.265 15.6349 158.351 15.377 159.457 15.3984C161.214 15.4324 162.971 15.4315 164.727 15.3967C165.58 15.3806 165.831 15.5734 165.829 16.4801C165.808 25.287 165.817 34.0929 165.817 42.8989C165.817 43.9359 165.818 43.9368 166.855 43.9368C180.643 43.9368 194.43 43.9324 208.217 43.9458C209.226 43.9467 210.033 43.7628 210.557 42.7686C211.115 41.7083 210.674 39.6905 209.007 39.7351C208.53 39.7476 208.052 39.6842 207.575 39.6833C197.513 39.6807 187.452 39.6708 177.39 39.7003C176.562 39.703 176.359 39.4567 176.372 38.6641C176.407 36.6177 176.356 34.5695 176.325 32.5231C176.319 32.1554 176.413 31.9001 176.698 31.6324C179.619 28.8899 182.518 26.1241 185.427 23.3708C185.873 22.9487 186.372 22.581 186.799 22.1428C187.155 21.7778 187.552 21.6287 188.048 21.6296C191.029 21.6359 194.011 21.6296 196.991 21.6386C197.208 21.6395 197.469 21.5199 197.628 21.8135C197.833 22.1892 197.416 22.2981 197.296 22.4016C194.535 24.7845 191.952 27.3602 189.233 29.7886C188.651 30.3098 188.107 30.8756 187.53 31.4039C187.384 31.5369 187.22 31.6324 187.327 31.8511C187.413 32.0224 187.593 31.9974 187.748 32.0001C188.068 32.0046 188.387 32.0019 188.707 32.0019C194.457 32.0019 200.205 31.9885 205.955 32.009C207.84 32.0162 209.683 32.2571 211.391 33.1799C212.929 34.0117 213.887 35.304 214.534 36.8721C215.62 39.5048 215.455 42.2822 215.147 44.9828C214.866 47.4674 213.504 49.5237 211.192 50.6741C209.935 51.3006 208.513 51.5014 207.073 51.4978C199.168 51.4791 191.262 51.4889 183.357 51.4889Z" fill="black"/>
<path d="M124.063 70.1071C124.609 69.8251 124.859 69.4119 125.138 69.0326C126.07 67.7662 127.099 66.5863 128.224 65.4877C131.159 62.6229 134.603 62.132 138.402 63.3038C140.982 64.1008 141.349 64.7942 140.308 67.3137C139.385 69.5502 138.687 71.8563 137.944 74.15C137.863 74.4016 137.772 74.6515 137.669 74.8952C136.76 77.0505 135.36 77.7591 133.076 77.1915C131.954 76.9148 130.831 76.7372 129.693 77.0523C127.04 77.7877 125.774 79.8082 124.994 82.2339C124.338 84.2732 124.529 86.3964 124.519 88.4883C124.494 94.0734 124.527 99.6584 124.534 105.243C124.535 105.509 124.533 105.776 124.519 106.041C124.423 108.048 123.493 108.948 121.49 108.894C117.954 108.797 114.418 108.806 110.88 108.867C108.67 108.904 107.979 108.196 107.978 105.959C107.972 92.8195 107.976 79.6815 107.976 66.5417C107.976 66.4614 107.973 66.3819 107.976 66.3016C108.055 63.9116 108.671 63.2913 111.075 63.3208C114.266 63.3583 117.456 63.4234 120.644 63.2601C120.725 63.2556 120.804 63.2583 120.884 63.2592C123.44 63.2994 124.259 64.2052 124.063 66.7675C124.014 67.4038 123.963 68.0401 123.956 68.6756C123.952 69.1218 124.021 69.5698 124.063 70.1071Z" fill="black"/>
<path d="M97.4544 36.5703C98.4629 35.0968 99.3625 33.751 100.302 32.4346C100.512 32.1419 100.857 31.9991 101.274 32.0009C104.549 32.0178 107.826 31.933 111.097 32.0374C113.205 32.1053 115.332 32.3453 117.184 33.5421C118.766 34.5649 119.737 36.0107 119.837 37.9018C119.934 39.7064 119.885 41.519 119.892 43.328C119.894 43.6359 119.894 44.0152 120.3 43.9171C122.029 43.4994 122.343 44.8381 122.859 45.9215C123.634 47.5432 124.366 49.1862 125.172 50.7935C125.469 51.387 125.356 51.4986 124.734 51.4977C112.995 51.4861 101.255 51.4816 89.5159 51.5093C88.8564 51.5102 88.6029 51.0755 88.3191 50.7168C85.3695 46.9907 82.461 43.2334 79.5248 39.4976C77.8202 37.3289 76.1057 35.1664 74.3511 33.0388C73.9004 32.4935 73.3043 31.9652 72.4814 32.2293C71.29 32.6122 70.9401 33.6037 71.8647 34.9308C72.9339 36.4668 74.1012 37.9366 75.2391 39.4244C77.0276 41.7591 78.826 44.0857 80.6225 46.4142C81.8086 47.951 82.9956 49.4878 84.1915 51.0166C84.2843 51.1353 84.4744 51.1951 84.3709 51.3879C84.2941 51.5289 84.1361 51.4807 84.0103 51.487C83.8505 51.4959 83.6908 51.4896 83.5302 51.4896C74.56 51.4896 65.588 51.4834 56.6178 51.5039C55.9976 51.5048 55.6254 51.3344 55.2925 50.7989C53.9949 48.7123 52.6499 46.656 51.3112 44.5962C51.1979 44.4222 50.9712 44.2696 51.0756 44.0616C51.2032 43.8037 51.4969 43.9429 51.7111 43.9429C57.0614 43.9349 62.4117 43.9385 67.7621 43.9305C68.0646 43.9296 68.4859 44.0982 68.6447 43.7868C68.8 43.4842 68.4127 43.2334 68.2476 42.9898C67.6398 42.0911 66.9954 41.2156 66.3386 40.3508C64.8232 38.3543 64.6001 36.1446 65.5648 33.9214C66.6929 31.3217 68.6072 29.4332 71.3043 28.3605C72.5037 27.8839 73.6854 27.4412 74.9803 27.2958C77.3936 27.0254 79.2776 27.9375 80.7466 29.792C82.9099 32.5256 85.0509 35.2762 87.2009 38.0196C88.6788 39.9054 90.1648 41.7867 91.6284 43.6832C91.8729 43.9992 92.1755 43.9313 92.47 43.9322C94.9457 43.9403 97.4214 43.9367 99.8971 43.9367C103.784 43.9367 107.67 43.9189 111.557 43.9528C112.235 43.959 112.407 43.7609 112.384 43.1067C112.334 41.6984 112.376 40.2865 112.366 38.8764C112.353 37.2245 111.716 36.5774 110.063 36.573C106.23 36.564 102.397 36.5703 98.5637 36.5703H97.4544Z" fill="black"/>
<path d="M49.0634 68.4468C47.4953 68.4468 45.9237 68.5155 44.3592 68.4307C41.6541 68.2852 39.2605 67.2098 37.34 65.3642C31.771 60.0121 24.2055 62.3887 20.5348 66.6056C19.8164 67.4311 19.1738 68.3076 18.6089 69.242C16.7517 72.3129 14.1082 73.9221 10.4383 73.8132C7.72792 73.7329 5.01215 73.7989 2.29816 73.7953C1.926 73.7944 1.54849 73.8043 1.18347 73.7453C0.268693 73.5972 -0.149876 73.0064 0.0482512 72.0907C0.158025 71.5775 0.364186 71.0813 0.553389 70.5878C1.44586 68.2611 2.12323 65.8542 3.14154 63.5757C6.28302 56.5511 11.6601 52.0138 18.832 49.439C28.335 46.0262 37.414 46.8045 46.0129 52.1602C50.9295 55.2231 54.0121 59.6828 55.5561 65.2268C56.2103 67.5766 55.4106 68.5226 52.9742 68.4325C51.8318 68.3914 50.6859 68.4227 49.5418 68.4209H49.0634V68.4468Z" fill="black"/>
<path d="M280.73 28.3026C280.449 28.39 280.141 28.4222 279.892 28.6685C279.211 29.3432 278.555 30.034 278.066 30.8649C277.589 31.6708 277.638 32.0295 278.318 32.6551C278.592 32.9086 278.906 33.0978 279.251 33.2513C279.672 33.4387 279.953 33.3682 280.141 32.9265C280.594 31.8662 281.293 30.9639 282.018 30.0831C282.716 29.2352 282.589 28.797 281.527 28.4686C281.274 28.3909 281.009 28.3588 280.73 28.3026ZM282.852 35.1148C283.298 35.1317 283.541 35.0746 283.636 34.7007C283.924 33.5681 284.616 32.6712 285.357 31.7975C286.159 30.8479 286.052 30.4008 284.926 29.8073C283.663 29.1406 283.271 29.2004 282.345 30.2848C281.899 30.806 281.468 31.3495 281.097 31.926C279.986 33.6547 280.298 34.424 282.29 34.9729C282.517 35.0353 282.748 35.0889 282.852 35.1148ZM289.582 35.2504C289.077 35.428 288.897 35.2781 288.971 34.7274C289.038 34.2303 289.011 33.7207 289.021 33.2156C289.037 32.3579 288.715 31.7698 287.843 31.4575C286.955 31.1388 286.364 31.4369 285.832 32.1081C285.301 32.7756 284.801 33.4593 284.388 34.2071C284.122 34.6873 284.231 35.0461 284.656 35.3798C285.94 36.3821 287.016 36.2321 287.981 34.8961C288.134 34.6828 288.296 34.4758 288.482 34.2277C288.668 34.5436 288.508 34.7908 288.383 34.9702C287.933 35.6172 288.284 35.7163 288.855 35.8145C290.316 36.0679 291.717 35.8386 293.089 35.3647C295.029 34.6962 296.964 34.067 299.059 34.1081C301.086 34.1482 302.763 34.8908 304.157 36.3571C305.828 38.1161 307.42 39.9287 308.562 42.093C309.012 42.948 309.344 43.8369 309.442 44.8007C309.483 45.2032 309.465 45.6173 309.085 45.8797C308.669 46.1698 308.384 45.8128 308.097 45.6138C306.242 44.3268 304.477 42.9087 302.56 41.7074C302.007 41.3603 301.443 41.2326 300.814 41.3861C298.471 41.9564 296.205 44.757 296.088 47.1613C296.022 48.525 296.508 49.5888 297.586 50.4117C299.027 51.5138 300.61 52.384 302.177 53.2854C302.408 53.4184 302.821 53.4353 302.771 53.828C302.722 54.2162 302.337 54.2475 302.04 54.3376C300.464 54.8142 298.93 54.426 297.403 54.0815C296.157 53.8003 294.98 53.3059 293.802 52.8186C291.281 51.778 289.562 49.9627 288.468 47.4995C288.079 46.6276 287.643 45.7762 287.207 44.9257C286.819 44.1715 286.872 43.3933 286.986 42.5936C287.021 42.3455 287.239 41.9725 286.8 41.8574C286.485 41.7735 286.118 41.8029 285.963 42.1483C285.69 42.7588 285.286 42.6624 284.785 42.4857C277.125 39.7824 269.367 37.3727 261.672 34.7747C261.237 34.6275 260.697 34.7078 260.376 34.2455C260.874 33.6663 261.454 33.7948 262.06 33.9983C266.864 35.6163 271.671 37.2272 276.473 38.8453C276.956 39.0068 277.435 39.1666 277.948 39.155C279.026 39.1291 279.867 38.4419 280.062 37.4414C280.257 36.4347 279.756 35.4566 278.727 35.0898C276 34.1206 273.26 33.1906 270.516 32.2687C267.898 31.3887 265.272 30.5337 262.643 29.685C262.162 29.5297 261.89 29.3289 261.906 28.7479C261.924 28.1482 261.784 27.544 261.702 26.8398C263.655 27.5074 265.528 28.1455 267.399 28.7872C270.463 29.8394 273.53 30.8809 276.584 31.9572C277.166 32.1625 277.374 32.0759 277.251 31.4503C277.8 30.2491 278.586 29.2245 279.567 28.3436C280.341 27.6475 280.977 27.5386 281.874 28.083C282.705 28.5891 283.564 28.9416 284.536 29.0701C285.222 29.1602 285.769 29.5726 286.153 30.1428C286.401 30.5123 286.667 30.6471 287.128 30.6507C288.805 30.6632 289.559 31.4334 289.589 33.096C289.601 33.8136 289.586 34.532 289.582 35.2504Z" fill="black"/>
<path d="M130.336 33.5344V16.4642C130.336 15.5012 130.427 15.4093 131.371 15.4084C133.259 15.4066 135.149 15.4245 137.036 15.3995C137.753 15.3888 138.017 15.6815 138.016 16.3866C138.006 27.8191 138.005 39.2524 138.022 50.6858C138.022 51.3293 137.799 51.5069 137.192 51.4989C135.171 51.473 133.149 51.4685 131.128 51.5015C130.497 51.5122 130.319 51.3186 130.321 50.684C130.346 44.9678 130.336 39.2507 130.336 33.5344Z" fill="black"/>
<path d="M152.142 45.2793C152.142 48.8697 152.129 52.4601 152.148 56.0505C152.155 57.3187 151.521 58.1317 150.453 58.6824C149.814 59.0108 149.106 59.1339 148.426 59.3463C147.082 59.7649 146.256 58.8733 145.376 58.1397C144.517 57.4222 143.691 56.6645 142.825 55.9568C142.439 55.6426 142.419 55.4097 142.902 55.283C143.752 55.0607 144.159 54.3708 144.259 53.6747C144.405 52.6662 144.64 51.6667 144.633 50.6225C144.595 45.1704 144.624 39.7183 144.602 34.2663C144.601 33.6924 144.71 33.488 145.335 33.5014C147.357 33.546 149.38 33.538 151.401 33.5059C151.992 33.497 152.161 33.6683 152.157 34.268C152.127 37.9379 152.142 41.6086 152.142 45.2793Z" fill="black"/>
<path d="M66.6713 54.8795C68.3161 54.6679 69.6191 56.253 69.5763 57.6818C69.521 59.5114 68.1573 60.5564 66.6508 60.5448C64.9676 60.5314 63.7887 59.5908 63.7057 57.7068C63.6432 56.2887 64.74 54.6894 66.6713 54.8795Z" fill="black"/>
<path d="M109.367 54.8799C111.294 54.6774 112.322 56.2668 112.302 57.6216C112.274 59.4976 111.055 60.5632 109.374 60.5507C107.778 60.5382 106.428 59.486 106.45 57.6475C106.47 55.958 107.597 54.8808 109.367 54.8799Z" fill="black"/>
<path d="M73.5039 54.8796C75.2291 54.6503 76.483 56.2549 76.4553 57.6704C76.4169 59.6106 74.9194 60.5736 73.503 60.5504C71.9037 60.5245 70.5989 59.4143 70.6427 57.7498C70.6918 55.9265 71.6824 54.8841 73.5039 54.8796Z" fill="black"/>
<path d="M281.548 47.2319C281.484 47.0552 281.137 47.1837 281.179 46.899C281.219 46.6411 281.427 46.6794 281.61 46.6643C282.161 46.6188 282.83 47.0802 283.236 46.4554C283.528 46.0038 283.612 45.4193 283.818 44.9061C283.891 44.7276 283.812 44.4402 284.089 44.3876C284.322 44.3439 284.402 44.5322 284.455 44.7214C284.225 45.4139 283.974 46.1011 283.774 46.8035C283.622 47.3354 283.326 47.5193 282.789 47.4059C282.381 47.3202 281.962 47.2872 281.548 47.2319Z" fill="#0A0909"/>
<path d="M235.702 36.0745C235.668 36.0521 235.634 36.0298 235.6 36.0066C235.626 36.037 235.652 36.0682 235.678 36.0995C235.734 36.1494 235.79 36.2012 235.846 36.2512C235.912 36.3877 236.024 36.4314 236.167 36.4091L236.328 36.5689C236.382 36.6207 236.436 36.6733 236.491 36.7251C236.514 36.7536 236.538 36.7813 236.563 36.809C236.561 36.792 236.565 36.767 236.555 36.7581C236.538 36.7429 236.512 36.7367 236.49 36.726C236.437 36.6724 236.385 36.6189 236.331 36.5644L236.172 36.4056C236.11 36.269 236 36.2244 235.857 36.2405C235.806 36.1851 235.755 36.1298 235.702 36.0745ZM229.302 46.7974C228.619 47.025 227.912 47.0973 227.195 47.1045C226.02 47.1178 225.94 47.1812 225.623 48.328C225.589 48.453 225.525 48.5699 225.475 48.6904C224.652 48.5065 224.403 47.7042 223.906 47.183C223.118 46.3566 222.493 45.3963 222.059 44.3226C221.825 43.747 221.931 43.3543 222.541 43.1241C223.329 42.8269 224.007 42.4244 224.354 41.5694C224.545 41.0964 225.059 41.1356 225.477 41.2436C225.781 41.3204 225.918 41.5783 225.67 41.8532C225.354 42.2021 225.624 42.4217 225.783 42.7082C227.2 40.8492 228.875 39.2873 230.531 37.7095C230.917 37.3435 231.323 37.0017 231.715 36.6439C232.72 35.7273 233.738 34.8696 235.193 35.7898C235.23 35.8103 235.268 35.8308 235.304 35.8513C235.279 35.8174 235.256 35.7844 235.232 35.7505C234.947 35.5202 234.663 35.2909 234.306 35.0008C235.769 34.501 237.126 33.8513 238.595 33.5416C238.925 33.4711 239.03 33.3908 239.062 33.066C239.126 32.418 239.468 31.8674 239.782 31.3149C239.96 31.0017 240.193 30.9008 240.471 31.2177C242.488 33.522 245.31 34.5082 247.978 35.7202C249.4 36.3654 250.918 36.7786 252.445 37.1249C253.787 37.4292 254.349 38.4868 254.871 39.5899L254.854 39.6068C254.233 39.4855 253.829 38.9803 253.288 38.7162C253.007 38.5796 252.719 38.4466 252.421 38.3529C252.258 38.3021 252.111 38.4225 252.05 38.5814C252.007 38.6965 252.088 38.7724 252.207 38.7974C253.967 39.1695 255.193 40.3699 256.446 41.5274C256.474 41.639 256.503 41.7505 256.531 41.8621C256.551 41.8478 256.584 41.8371 256.589 41.8193C256.623 41.6881 256.588 41.581 256.466 41.5105C256.311 40.817 256.633 40.394 257.183 39.996C257.716 39.6104 258.394 39.498 258.872 39.0062C258.954 38.9232 259.386 39.182 259.656 39.2838L259.651 39.2766C259.654 39.7193 259.834 40.087 260.134 40.4029L260.129 40.3958C260.112 40.8108 260.337 41.1106 260.57 41.4623C260.981 40.9036 260.542 40.2467 260.933 39.7595C261.596 40.9072 261.911 42.1887 262.348 43.4221C262.521 43.9041 262.303 44.0817 261.8 44.0692C260.186 44.0308 258.571 44.0246 256.955 44.0058C256.933 43.6658 256.91 43.3258 256.887 42.9857C256.863 42.9875 256.841 42.9893 256.818 42.9911C256.798 43.3311 256.779 43.672 256.759 44.013C254.195 44.029 251.63 44.0397 249.066 44.0683C248.635 44.0727 248.41 43.9603 248.289 43.4971C248.056 42.6091 247.727 41.7452 247.439 40.8715C247.874 40.8902 248.163 41.1812 248.457 41.4391C248.87 41.7996 249.286 42.5261 249.644 42.4931C250.256 42.4369 250.098 41.5372 250.427 41.0651C250.87 40.4306 251.236 39.7434 251.659 39.041C251.379 38.9893 251.302 39.1338 251.207 39.2543C250.713 39.8808 250.278 40.5457 249.95 41.2749C249.708 41.8148 249.436 41.9558 248.959 41.4739C248.347 40.8518 247.681 40.2833 247.047 39.6818C246.73 39.3819 246.404 39.1267 245.941 39.1392C244.315 38.0084 242.847 36.6831 241.301 35.4524C241.261 35.3864 241.233 35.306 241.178 35.2561C240.952 35.0535 240.792 34.7536 240.445 34.7233C240.414 34.7206 240.331 34.8402 240.342 34.8911C240.41 35.2614 240.767 35.306 241.019 35.4694C242.863 37.7585 244.148 40.3306 245.192 43.0794C245.875 44.8813 245.38 46.4583 244.884 48.0871C244.365 49.7926 243.357 51.225 242.142 52.5137C242.07 52.5904 241.987 52.6609 241.899 52.7181C241.838 52.7582 241.759 52.7707 241.637 52.8145C241.54 52.0139 241.733 51.3124 242.156 50.6975C242.878 49.6507 243.361 48.5761 242.904 47.2812C242.823 47.0509 242.992 46.876 243.084 46.6903C244.058 44.7064 243.882 43.8639 241.791 42.4797C241.615 42.3637 241.421 42.2726 241.231 42.1798C240.676 41.9094 240.497 41.5149 240.825 40.9554C241.111 40.4681 241.269 39.9424 241.36 39.3864C241.65 37.6256 240.294 36.0066 238.521 36.012C237.736 36.0147 237.021 36.6546 236.795 37.4569C236.427 38.7652 235.799 39.9156 234.566 40.6171C233.654 41.1365 233.086 41.9853 232.494 42.7938C231.695 43.8844 230.961 45.0241 230.205 46.1451C230.06 46.3592 229.989 46.6457 229.649 46.6377C229.08 45.9451 228.479 45.2927 227.448 44.8046C227.997 45.7524 228.881 46.0558 229.302 46.7974Z" fill="#FAFAFA"/>
<path d="M261.713 37.214C261.53 37.1132 261.435 36.9499 261.385 36.7526C262.652 36.8098 263.757 37.4336 264.932 37.7977C267.227 38.5081 269.489 39.3158 271.765 40.0815C271.969 40.1503 272.161 40.2288 272.29 40.4144C271.845 40.9062 271.951 41.3542 272.376 41.8004C272.686 42.1235 272.966 42.4751 273.26 42.8134C272.981 43.8701 272.169 44.559 271.435 45.2516C270.954 45.705 270.248 45.2489 270.184 44.5465C270.063 43.2025 269.728 42.875 268.482 43.1623C267.714 43.339 267.31 42.958 266.934 42.4769C265.621 40.7946 264.091 39.3194 262.583 37.8218C262.383 37.6246 262.229 37.3336 261.874 37.3747L261.883 37.3809C261.878 37.2729 261.81 37.2283 261.713 37.214Z" fill="#FAFAFA"/>
<path d="M266.753 52.2144C267.075 51.1247 267.052 50.0287 266.909 48.9078C266.536 45.9983 265.294 43.4013 264.073 40.7917C263.917 40.4579 263.768 40.1205 263.615 39.785C264.426 39.984 264.745 40.7346 265.214 41.2816C266.087 42.2999 267.144 43.1826 267.734 44.4481C267.779 44.4169 267.861 44.3865 267.901 44.3294C268.174 43.9287 268.436 43.4655 269.019 43.6154C269.618 43.7698 269.687 44.2991 269.721 44.8212C269.751 45.2852 269.948 45.6565 270.423 45.7752C270.868 45.8859 270.936 46.1019 270.685 46.449C269.814 47.661 269.108 48.9533 268.536 50.3411C268.208 51.1389 267.525 51.7574 266.753 52.2144Z" fill="#FAFAFA"/>
<path d="M260.733 36.9265C260.744 37.3343 260.753 37.7413 260.764 38.1491C260.454 38.7471 260.632 39.3897 260.624 40.0082C260.618 40.4356 260.472 40.4937 260.128 40.3964L260.133 40.4035C260.17 39.943 260.062 39.545 259.649 39.2772L259.655 39.2844C259.628 38.8926 259.302 38.7159 259.064 38.4847C258.865 38.2928 258.724 38.3589 258.479 38.5409C257.921 38.955 257.449 39.4932 256.8 39.7859L256.758 39.744C257.201 38.6614 257.621 37.5592 258.685 36.9033C259.045 36.6801 259.007 36.4695 258.729 36.2196C258.403 35.9242 258.19 35.5771 258.222 35.0327C259.3 35.4173 259.679 36.632 260.733 36.9265Z" fill="#FAFAFA"/>
<path d="M273.259 42.813C272.967 42.4747 272.685 42.124 272.377 41.8C271.95 41.3538 271.844 40.9058 272.289 40.414C272.57 40.4123 272.991 40.2132 272.795 40.8237C272.601 41.4377 273.167 41.6849 273.45 42.0571C273.725 42.4194 273.856 42.6943 273.259 42.813Z" fill="#211C14"/>
<path d="M225.798 49.5002C225.859 49.3895 225.923 49.2789 225.984 49.1682C226.083 49.9009 226.154 50.6345 225.998 51.3833C225.931 50.755 225.864 50.1276 225.798 49.5002Z" fill="#5B5B5C"/>
<path d="M239.859 49.9623C240.133 50.0399 240.35 50.1943 240.51 50.4281C240.455 50.4728 240.398 50.5174 240.341 50.562C240.139 50.4014 239.938 50.2407 239.736 50.081C239.777 50.0408 239.818 50.0015 239.859 49.9623Z" fill="#080808"/>
<path d="M239.736 50.0806C239.676 50.0103 239.614 49.9401 239.555 49.8698C239.687 49.7969 239.791 49.8209 239.858 49.9623C239.817 50.0023 239.777 50.0414 239.736 50.0806Z" fill="#080808"/>
<path d="M254.872 39.5904C254.894 39.6163 254.917 39.6431 254.939 39.6689C254.912 39.6484 254.883 39.6279 254.854 39.6083L254.872 39.5904Z" fill="#FAFAFA"/>
<path d="M256.799 39.7855C256.766 39.8042 256.732 39.823 256.699 39.8408C256.718 39.8087 256.738 39.7766 256.758 39.7435L256.799 39.7855Z" fill="#FAFAFA"/>
<path d="M240.929 45.854C240.888 45.8291 240.846 45.8042 240.805 45.7793C240.834 45.7553 240.862 45.7304 240.89 45.7055L240.968 45.822L240.929 45.854Z" fill="#080808"/>
<path d="M241.102 46.0063C241.01 45.9948 240.931 45.969 240.93 45.8543L240.968 45.8223C241.047 45.8507 241.124 45.8783 241.203 45.9068C241.168 45.9388 241.135 45.9726 241.102 46.0063Z" fill="#080808"/>
<path d="M241.256 46.1719C241.206 46.1167 241.155 46.0616 241.104 46.0074C241.136 45.9736 241.169 45.9398 241.204 45.9078C241.256 45.9469 241.308 45.9851 241.359 46.0234C241.325 46.0732 241.291 46.1221 241.256 46.1719Z" fill="#080808"/>
<path d="M240.961 39.1838C240.936 39.6184 240.751 40.2244 240.523 40.8179C240.351 41.2642 240.051 41.3757 239.569 41.2418C238.501 40.9464 237.507 40.4056 236.375 40.3155C236.04 40.2887 235.921 40.0799 236.141 39.7612C236.703 38.9482 237.068 38.0397 237.443 37.1329C237.679 36.5618 238.174 36.3806 238.751 36.4448C239.979 36.5823 240.96 37.7184 240.961 39.1838Z" fill="#F4CF91"/>
<path d="M245.939 39.1397C246.404 39.1272 246.73 39.3824 247.046 39.6823C247.68 40.2838 248.346 40.8523 248.96 41.4743C249.435 41.9563 249.707 41.8153 249.949 41.2753C250.277 40.5462 250.712 39.8813 251.206 39.2539C251.3 39.1343 251.379 38.9897 251.657 39.0415C251.236 39.7439 250.868 40.4311 250.426 41.0656C250.097 41.5377 250.255 42.4373 249.643 42.4935C249.285 42.5266 248.869 41.8001 248.456 41.4395C248.162 41.1816 247.873 40.8907 247.439 40.8719C247.217 40.4471 246.967 40.0553 246.485 39.8759C246.15 39.7519 246.064 39.4279 245.939 39.1397Z" fill="#F4CF91"/>
<path d="M229.302 46.7971C228.881 46.0555 227.996 45.752 227.447 44.8051C228.479 45.2924 229.08 45.9448 229.649 46.6374C229.583 46.7989 229.454 46.8221 229.302 46.7971Z" fill="#F4CF91"/>
<path d="M260.129 40.3954C260.473 40.4927 260.619 40.4347 260.625 40.0072C260.632 39.3887 260.456 38.7461 260.765 38.1482C260.831 38.6846 260.692 39.2424 260.933 39.76C260.542 40.2464 260.981 40.9032 260.57 41.4619C260.336 41.1103 260.111 40.8104 260.129 40.3954Z" fill="#F4CF91"/>
<path d="M241.019 35.4692C240.766 35.3068 240.409 35.2622 240.342 34.8918C240.332 34.8409 240.414 34.7214 240.445 34.724C240.791 34.7544 240.951 35.0542 241.178 35.2568C241.232 35.3068 241.261 35.3871 241.301 35.4523C241.207 35.4585 241.113 35.4639 241.019 35.4692Z" fill="#F4CF91"/>
<path d="M256.757 44.0122C256.776 43.6713 256.796 43.3313 256.816 42.9903C256.839 42.9894 256.861 42.9877 256.885 42.9859C256.908 43.325 256.931 43.665 256.955 44.0051C256.887 44.0077 256.823 44.0095 256.757 44.0122Z" fill="#B4B4B5"/>
<path d="M261.713 37.2146C261.81 37.2288 261.877 37.2733 261.882 37.3809C261.826 37.3257 261.769 37.2697 261.713 37.2146Z" fill="#F4CF91"/>
<path d="M282.853 35.116C282.749 35.0901 282.518 35.0366 282.29 34.9741C280.299 34.4253 279.987 33.6551 281.098 31.9272C281.468 31.3507 281.899 30.8072 282.346 30.2851C283.272 29.2017 283.664 29.1419 284.927 29.8076C286.053 30.402 286.16 30.8491 285.358 31.7987C284.619 32.6725 283.924 33.5694 283.637 34.7019C283.542 35.0759 283.299 35.133 282.853 35.116Z" fill="#F4CF91"/>
<path d="M280.731 28.3031C281.009 28.3594 281.274 28.3915 281.527 28.4691C282.59 28.7976 282.716 29.2358 282.018 30.0836C281.293 30.9645 280.594 31.8667 280.142 32.927C279.953 33.3688 279.672 33.4393 279.251 33.2519C278.906 33.0984 278.592 32.9091 278.318 32.6557C277.638 32.0301 277.589 31.6713 278.067 30.8654C278.555 30.0345 279.212 29.3437 279.893 28.669C280.141 28.4227 280.449 28.3906 280.731 28.3031Z" fill="#F4CF91"/>
<path d="M259.649 39.2774C260.062 39.5452 260.17 39.9432 260.133 40.4028C259.832 40.0878 259.653 39.7201 259.649 39.2774Z" fill="#F4CF91"/>
<path d="M256.465 41.5112C256.587 41.5817 256.623 41.6879 256.588 41.8191C256.584 41.8378 256.551 41.8476 256.53 41.8628C256.502 41.7512 256.474 41.6397 256.446 41.5281L256.465 41.5112Z" fill="#F4CF91"/>
<path d="M235.856 36.2404C235.999 36.2253 236.109 36.2699 236.172 36.4064L236.168 36.41C236.023 36.4323 235.912 36.3886 235.845 36.252L235.856 36.2404Z" fill="#F4CF91"/>
<path d="M236.488 36.7271C236.51 36.7369 236.536 36.7431 236.553 36.7583C236.563 36.7672 236.559 36.7922 236.561 36.8101C236.537 36.7824 236.512 36.7538 236.489 36.7262L236.488 36.7271Z" fill="#F4CF91"/>
<path d="M236.331 36.5651C236.384 36.6194 236.436 36.6727 236.489 36.7261L236.49 36.7252C236.435 36.6736 236.381 36.6211 236.327 36.5687L236.331 36.5651Z" fill="#F4CF91"/>
<path d="M236.327 36.5684L236.168 36.4092L236.172 36.4056L236.331 36.5648L236.327 36.5684Z" fill="#F4CF91"/>
<path d="M235.845 36.2515C235.79 36.2008 235.734 36.1501 235.678 36.1003L235.703 36.0745L235.856 36.2399L235.845 36.2515Z" fill="#F4CF91"/>
<path d="M235.675 36.1001C235.65 36.0689 235.624 36.0385 235.598 36.0073C235.632 36.0305 235.665 36.0528 235.699 36.0751L235.675 36.1001Z" fill="#F4CF91"/>
<path d="M235.232 35.7507C235.256 35.7846 235.28 35.8176 235.304 35.8516C235.267 35.8301 235.23 35.8096 235.193 35.79L235.232 35.7507Z" fill="#F4CF91"/>
<path d="M252.152 16.1408C252.254 16.1827 252.45 16.0248 252.301 15.8008C251.955 15.2769 252.459 15.3974 252.595 15.4232C253.06 15.5116 253.355 15.8043 253.305 16.3139C253.26 16.7664 252.988 17.0761 252.534 17.0707C252.076 17.0654 251.719 16.8226 251.671 16.3095C251.655 16.1301 251.62 15.8391 252.152 16.1408Z" fill="#0A0909"/>
<path d="M178.506 14.7174C178.506 16.8271 176.796 18.5371 174.687 18.5371C172.576 18.5371 170.866 16.8271 170.866 14.7174C170.866 12.6076 172.576 10.8976 174.687 10.8976C176.796 10.8976 178.506 12.6076 178.506 14.7174Z" fill="black"/>
<path d="M185.637 19.1466C185.637 21.2563 183.926 22.9663 181.817 22.9663C179.707 22.9663 177.997 21.2563 177.997 19.1466C177.997 17.0368 179.707 15.3268 181.817 15.3268C183.926 15.3268 185.637 17.0368 185.637 19.1466Z" fill="black"/>
<path d="M178.339 22.9659C178.339 25.0757 176.629 26.7856 174.52 26.7856C172.409 26.7856 170.699 25.0757 170.699 22.9659C170.699 20.8561 172.409 19.1461 174.52 19.1461C176.629 19.1461 178.339 20.8561 178.339 22.9659Z" fill="black"/>
</svg>
