<svg width="55" height="55" viewBox="0 0 55 55" fill="none" xmlns="http://www.w3.org/2000/svg">
<path d="M20.3992 18.815C21.3799 18.4519 22.4924 18.6848 23.2452 19.4375C24.2985 20.4908 24.2985 22.199 23.2452 23.2524C22.1916 24.306 20.4836 24.306 19.43 23.2524C18.6742 22.4965 18.4427 21.378 18.812 20.3946C18.9052 20.1464 18.7796 19.8697 18.5314 19.7764C18.2833 19.6832 18.0065 19.8089 17.9133 20.057C17.4128 21.3899 17.7266 22.9066 18.7512 23.9312C20.1797 25.3597 22.4955 25.3597 23.924 23.9312C25.3523 22.503 25.3523 20.1869 23.924 18.7586C22.9035 17.7384 21.3952 17.4226 20.0659 17.9147C19.8173 18.0067 19.6903 18.2829 19.7824 18.5315C19.8744 18.7801 20.1506 18.907 20.3992 18.815Z" fill="#B5B5B5"/>
<path d="M19.783 18.7676L21.0223 20.0067C21.1239 20.1082 21.1239 20.2734 21.0223 20.3749L20.3679 21.0294C20.2661 21.1312 20.1013 21.1312 19.9996 21.0294L18.7669 19.797C18.5794 19.6095 18.2755 19.6096 18.0881 19.797C17.9006 19.9845 17.9007 20.2884 18.0881 20.4759L19.3208 21.7083C19.7974 22.1849 20.57 22.1849 21.0467 21.7082L21.7012 21.0538C22.1776 20.5774 22.1776 19.8046 21.7013 19.328L20.4618 18.0887C20.2743 17.9012 19.9704 17.9013 19.7829 18.0887C19.5955 18.2762 19.5955 18.5801 19.783 18.7676ZM35.6036 37.2024C34.6228 37.5655 33.5104 37.3326 32.7575 36.5799C31.7042 35.5266 31.7042 33.8183 32.7576 32.765C33.8112 31.7114 35.5192 31.7114 36.5728 32.765C37.3286 33.5208 37.5601 34.6394 37.1907 35.6228C37.0975 35.871 37.2231 36.1477 37.4713 36.2409C37.7195 36.3341 37.9962 36.2085 38.0894 35.9603C38.59 34.6275 38.2762 33.1108 37.2516 32.0861C35.8231 30.6577 33.5072 30.6577 32.0788 32.0861C30.6505 33.5144 30.6505 35.8305 32.0788 37.2587C33.0992 38.279 34.6076 38.5948 35.9369 38.1027C36.1855 38.0106 36.3124 37.7345 36.2204 37.4859C36.1284 37.2373 35.8522 37.1103 35.6036 37.2024H35.6036Z" fill="#B5B5B5"/>
<path d="M36.2198 37.2498L34.9807 36.0107C34.879 35.909 34.879 35.7441 34.9806 35.6425L35.635 34.9879C35.7367 34.8862 35.9015 34.8862 36.0032 34.9879L37.2359 36.2204C37.4234 36.4078 37.7273 36.4078 37.9147 36.2203C38.1021 36.0328 38.1021 35.7289 37.9146 35.5415L36.682 34.3091C36.2054 33.8325 35.4327 33.8325 34.9561 34.3091L34.3018 34.9637C33.8252 35.4399 33.8252 36.2129 34.3018 36.6896L35.541 37.9287C35.7284 38.1161 36.0323 38.1161 36.2198 37.9287C36.4072 37.7412 36.4072 37.4373 36.2198 37.2498L36.2198 37.2498ZM31.8079 33.3012L22.6377 24.1311C22.4503 23.9436 22.1463 23.9436 21.9589 24.1311C21.7714 24.3185 21.7714 24.6224 21.9589 24.8099L31.129 33.9801C31.3165 34.1675 31.6204 34.1675 31.8079 33.9801C31.9953 33.7926 31.9953 33.4887 31.8079 33.3012ZM24.0571 22.5451L33.4408 31.9289C33.6283 32.1163 33.9322 32.1163 34.1196 31.9289C34.3071 31.7414 34.3071 31.4375 34.1196 31.2501L24.7359 21.8663C24.5484 21.6788 24.2445 21.6788 24.0571 21.8663C23.8696 22.0537 23.8696 22.3577 24.0571 22.5451ZM30.0551 25.1823L34.1973 21.0401C34.3847 20.8527 34.3847 20.5488 34.1973 20.3613C34.0098 20.1739 33.7059 20.1739 33.5184 20.3613L29.3763 24.5035C29.1888 24.6909 29.1888 24.9948 29.3763 25.1823C29.5637 25.3698 29.8677 25.3698 30.0551 25.1823ZM35.08 21.6687L30.8015 25.9057C30.6131 26.0922 30.6116 26.3961 30.7982 26.5845C30.9847 26.7728 31.2886 26.7743 31.477 26.5878L35.7555 22.3508C35.9438 22.1643 35.9453 21.8604 35.7588 21.672C35.5722 21.4836 35.2683 21.4822 35.08 21.6687Z" fill="#B5B5B5"/>
<path d="M38.1653 19.0704C38.229 19.1341 38.2735 19.2144 38.2937 19.3022C38.3139 19.39 38.309 19.4816 38.2795 19.5667L37.6186 21.4776C37.5948 21.5463 37.5558 21.6087 37.5044 21.6601C37.453 21.7115 37.3906 21.7506 37.3219 21.7743L35.4108 22.4355C35.3256 22.465 35.234 22.4699 35.1462 22.4497C35.0584 22.4295 34.9781 22.385 34.9144 22.3213L33.6647 21.0714C33.601 21.0077 33.5566 20.9274 33.5364 20.8396C33.5162 20.7519 33.5211 20.6602 33.5505 20.5751L34.2115 18.6642C34.2352 18.5955 34.2743 18.5331 34.3257 18.4817C34.3771 18.4303 34.4395 18.3913 34.5081 18.3675L36.419 17.7063C36.5041 17.6769 36.5958 17.672 36.6836 17.6922C36.7714 17.7124 36.8517 17.7568 36.9154 17.8205L38.1653 19.0705L38.1653 19.0704ZM36.4491 18.7118L35.0425 19.1985L34.556 20.605L35.3809 21.4301L36.7876 20.9434L37.2741 19.5368L36.4491 18.7118H36.4491ZM26.578 31.4751L20.8929 37.1603C20.7172 37.336 20.5061 37.3587 20.4304 37.283L18.6833 35.536C18.6078 35.4603 18.6305 35.2494 18.8063 35.0735L24.4803 29.3997C24.6677 29.2123 24.6677 28.9084 24.4803 28.7209C24.2929 28.5335 23.9889 28.5335 23.8015 28.7209L18.1274 34.3947C17.6052 34.9173 17.5179 35.7278 18.0044 36.2146L19.7517 37.9619C20.2387 38.4485 21.0496 38.3612 21.5717 37.8391L27.2568 32.1539C27.4443 31.9665 27.4443 31.6626 27.2568 31.4751C27.0694 31.2877 26.7655 31.2877 26.578 31.4751L26.578 31.4751Z" fill="#B5B5B5"/>
<circle cx="27.5" cy="27.5" r="25.5" stroke="#ECECEC" stroke-width="4"/>
</svg>
