<svg width="74" height="74" viewBox="0 0 74 74" fill="none" xmlns="http://www.w3.org/2000/svg">
<circle cx="37" cy="37" r="35" stroke="#AFAFAF" stroke-width="4"/>
<g clip-path="url(#clip0_225_1001)">
<path d="M38.4688 24.6141C38.3835 24.495 38.1959 24.5399 38.174 24.6848L38.0486 25.5137L37.0122 25.9199L36.1421 25.2254L36.2645 24.4161C36.2866 24.2701 36.1179 24.1716 36.0016 24.2631C35.6698 24.5245 35.4328 24.9073 35.3646 25.3578C35.2665 26.0066 35.5469 26.6293 36.0391 26.9966L35.8054 28.5413L33.4666 30.4457L32.7286 28.8846C32.1614 27.6846 30.9372 26.9092 29.6098 26.9092C29.5274 26.9092 29.4789 26.9092 29.4516 26.9092C29.4284 26.9092 29.4206 26.9092 29.4206 26.9092C29.2473 26.9092 28.2112 26.9092 23.0915 26.9092C21.4085 26.9092 20.0085 28.2783 20 29.9614V39.4844C19.9964 40.2002 20.5499 40.7835 21.2659 40.7871C21.268 40.7871 21.2702 40.7871 21.2725 40.7871C21.9853 40.7871 22.5968 40.2111 22.6005 39.4974V29.9743V29.9741C22.6012 29.8324 22.7325 29.718 22.8743 29.7184C23.0161 29.7187 23.1308 29.8338 23.1308 29.9756C23.1309 33.1385 23.1314 51.0779 23.1314 51.7646C23.1314 52.6237 23.8278 53.3201 24.6869 53.3201C25.546 53.3201 26.2424 52.6237 26.2424 51.7646V39.3315H26.914V51.7648C26.914 52.6239 27.6104 53.3203 28.4695 53.3203C29.3286 53.3203 30.025 52.6239 30.025 51.7648C30.025 51.7648 30.0007 33.417 29.9972 30.0798C29.9971 29.9844 30.0632 29.9018 30.1562 29.881C30.2492 29.8601 30.3442 29.9064 30.385 29.9927L31.8301 33.0498C32.1886 33.808 33.1667 34.0333 33.8205 33.501L35.341 32.2629C35.4385 32.5341 35.6779 32.7446 35.9829 32.7908C36.4255 32.8577 36.8387 32.5531 36.9056 32.1105L37.099 30.8315L37.6215 30.4061C38.1766 29.9541 38.2602 29.1376 37.8081 28.5825C37.7137 28.4665 37.6027 28.3724 37.482 28.2981L37.6421 27.2391C38.2124 27.0368 38.6714 26.5305 38.7708 25.8729C38.8405 25.4116 38.7202 24.9657 38.4688 24.6141Z" fill="#AFAFAF"/>
<path d="M26.5778 20.6798C25.094 20.6798 23.8913 21.8826 23.8913 23.3664C23.8913 24.852 25.0974 26.0529 26.5778 26.0529C28.0605 26.0529 29.2643 24.8501 29.2643 23.3663C29.2643 21.8826 28.0615 20.6798 26.5778 20.6798Z" fill="#AFAFAF"/>
<path d="M53.1907 35.2512H50.9609C50.514 35.2512 50.1517 35.6135 50.1517 36.0604V37.0621L49.9851 37.2377L48.7639 30.6908C48.6842 30.2634 48.3111 29.9535 47.8764 29.9535H39.5239C39.4495 30.6983 39.0703 31.3639 38.5152 31.8212C38.4311 31.9907 38.4404 32.1347 38.4404 32.2597C38.4404 32.6626 38.767 32.9892 39.1699 32.9892H41.4991C41.902 32.9892 42.2285 32.6626 42.2285 32.2597C42.2285 32.1245 42.2423 31.9578 42.1198 31.7591H47.1264L48.2487 37.776H46.9261C46.7814 36.2626 45.5046 35.0747 43.954 35.0747C42.4034 35.0747 41.1267 36.2626 40.982 37.776H32.4203L32.8913 35.2511C32.3193 35.2282 31.7892 35.0331 31.3475 34.7018V41.8408C31.6822 41.3318 32.2578 40.9954 32.9123 40.9954C33.9462 40.9954 34.7843 41.834 34.7843 42.8687C34.7843 43.9032 33.9462 44.7419 32.9123 44.7419C32.2578 44.7419 31.6822 44.4057 31.3475 43.8966V50.9909C31.7389 51.4482 32.3199 51.7384 32.9689 51.7384C34.1475 51.7384 35.1029 50.783 35.1029 49.6044V47.689H37.0312V48.4124C37.0312 48.8165 37.3588 49.144 37.7628 49.144H42.9061C43.3102 49.144 43.6378 48.8165 43.6378 48.4124V47.689H45.566V49.6044C45.566 50.783 46.5215 51.7384 47.7001 51.7384C48.8787 51.7384 49.8341 50.783 49.8341 49.6044V47.689H50.2499C51.0396 47.689 51.6798 47.0488 51.6798 46.2592V41.6708C51.6798 40.527 51.1765 39.5014 50.3802 38.8012L51.2119 37.9242H53.1908C53.6377 37.9242 54 37.5619 54 37.1151V36.0604C53.9998 35.6134 53.6376 35.2512 53.1907 35.2512ZM42.4397 46.2088H38.2294C37.8532 46.2088 37.5482 45.9038 37.5482 45.5276C37.5482 45.1513 37.8532 44.8463 38.2294 44.8463H42.4397C42.8159 44.8463 43.1209 45.1513 43.1209 45.5276C43.1208 45.9038 42.8158 46.2088 42.4397 46.2088ZM43.5643 43.6134H37.1046C36.7284 43.6134 36.4235 43.3084 36.4235 42.9321C36.4235 42.5559 36.7285 42.2509 37.1046 42.2509H43.5643C43.9405 42.2509 44.2455 42.5559 44.2455 42.9321C44.2455 43.3084 43.9406 43.6134 43.5643 43.6134ZM42.5024 37.776C42.6364 37.0954 43.2347 36.5795 43.954 36.5795C44.6734 36.5795 45.2715 37.0955 45.4057 37.776H42.5024ZM47.7567 44.742C46.7228 44.742 45.8847 43.9033 45.8847 42.8687C45.8847 41.8342 46.7228 40.9955 47.7567 40.9955C48.7907 40.9955 49.6288 41.8341 49.6288 42.8687C49.6288 43.9033 48.7907 44.742 47.7567 44.742Z" fill="#AFAFAF"/>
</g>
<defs>
<clipPath id="clip0_225_1001">
<rect width="34" height="34" fill="white" transform="translate(20 20)"/>
</clipPath>
</defs>
</svg>
