<svg width="74" height="74" viewBox="0 0 74 74" fill="none" xmlns="http://www.w3.org/2000/svg">
<path fill-rule="evenodd" clip-rule="evenodd" d="M25.7611 28.1911V29.3823H27.0917H28.4224V30.2898V31.1973H21.7112H15V35.111V39.0247H17.3721H19.7441V41.9175V44.8102H29.6157H39.4873L41.2379 42.6832C42.2008 41.5134 44.3324 38.926 45.9748 36.9337L48.961 33.3112L49.7131 33.1055C50.1268 32.9925 50.7689 32.8412 51.14 32.7695L51.8147 32.6389L52.7048 33.5064L53.5949 34.374L54.4582 33.5218L55.3216 32.6698L53.9087 31.2847L52.4959 29.8994L46.3894 31.3992C43.0307 32.2242 40.2083 32.899 40.1175 32.899C40.0266 32.8989 39.5509 32.5161 39.0605 32.0481L38.1687 31.1973H34.5684H30.968V30.2898V29.3823H32.3566H33.7451V28.1911V27H29.7531H25.7611V28.1911ZM17.5456 35.111V36.529H18.6449H19.7441V35.111V33.693H18.6449H17.5456V35.111ZM53.0109 38.6447C51.0921 41.2452 51.0438 41.3421 51.0438 42.5981C51.0438 43.7853 51.3079 44.443 52.0472 45.0979C52.8474 45.8067 53.3599 45.9985 54.4573 46C55.5982 46.0016 56.1568 45.7813 56.9673 45.0104C57.9606 44.0655 58.2865 42.4625 57.7287 41.2637C57.4849 40.7395 54.5954 36.7524 54.4644 36.7594C54.4287 36.7614 53.7746 37.6097 53.0109 38.6447Z" fill="#AFAFAF"/>
<circle cx="37" cy="37" r="35" stroke="#AFAFAF" stroke-width="4"/>
</svg>
